<?xml version="1.0" encoding="UTF-8" standalone="no"?>
<svg width="40px" height="40px" viewBox="0 0 40 40" version="1.1" xmlns="http://www.w3.org/2000/svg" xmlns:xlink="http://www.w3.org/1999/xlink">
    <!-- Generator: Sketch 3.8.3 (29802) - http://www.bohemiancoding.com/sketch -->
    <title>email-circle</title>
    <desc>Created with Sketch.</desc>
    <defs></defs>
    <g id="Page-1" stroke="none" stroke-width="1" fill="none" fill-rule="evenodd">
        <g id="email-circle" fill="#000000">
            <g id="Group">
                <path d="M30,10 L10,10 C8.16166667,10 6.66666667,11.495 6.66666667,13.3333333 L6.66666667,26.6666667 C6.66666667,28.505 8.16166667,30 10,30 L30,30 C31.8383333,30 33.3333333,28.505 33.3333333,26.6666667 L33.3333333,13.3333333 C33.3333333,11.495 31.8383333,10 30,10 L30,10 Z M31.6666667,26.6666667 C31.6666667,27.585 30.9183333,28.3333333 30,28.3333333 L10,28.3333333 C9.08166667,28.3333333 8.33333333,27.585 8.33333333,26.6666667 L8.33333333,13.3333333 C8.33333333,12.415 9.08166667,11.6666667 10,11.6666667 L30,11.6666667 C30.9183333,11.6666667 31.6666667,12.415 31.6666667,13.3333333 L31.6666667,26.6666667 L31.6666667,26.6666667 Z" id="Shape"></path>
                <path d="M28.5450433,14.1192017 L20.0000004,21.3447874 L11.0438232,13.9257202 C10.8333333,13.7568359 10.48,13.2833333 10.1883333,13.64 C9.89666667,13.995 10.2966309,14.2125855 10.4817505,14.3970337 L16.6152133,19.6234682 L10.3933333,23.46 C10.0033333,23.7033333 9.885,24.2183333 10.1283333,24.6083333 C10.285,24.8616667 10.5566667,25 10.8333333,25 C10.9833333,25 11.1366667,24.96 11.275,24.8733333 L17.6966667,20.8583333 L19.4716667,22.3116667 C19.625,22.4366667 19.8133333,22.5 20,22.5 C20.1866667,22.5 20.375,22.4366667 20.5266667,22.3116667 L22.3016667,20.8583333 L28.7233333,24.8733333 C28.8616667,24.96 29.015,25 29.1666667,25 C29.445,25 29.7166667,24.8616667 29.8733333,24.6083333 C30.1166667,24.2183333 29.9983333,23.705 29.6083333,23.46 L23.665,19.745 L29.695,14.8116667 C30.05,14.52 30.1033333,13.995 29.8116667,13.64 C29.52,13.2833333 28.90171,13.8292017 28.5450433,14.1192017 Z" id="Shape"></path>
                <path d="M20,0 C8.97166667,0 0,8.97166667 0,20 C0,31.0283333 8.97166667,40 20,40 C31.0283333,40 40,31.0283333 40,20 C40,8.97166667 31.0283333,0 20,0 L20,0 Z M20,39 C9.52409091,39 1,30.4776364 1,20 C1,9.52409091 9.52409091,1 20,1 C30.4759091,1 39,9.52409091 39,20 C39,30.4776364 30.4759091,39 20,39 L20,39 Z" id="Shape"></path>
            </g>
        </g>
    </g>
</svg>