<?xml version="1.0" encoding="UTF-8" standalone="no"?>
<svg width="40px" height="40px" viewBox="0 0 40 40" version="1.1" xmlns="http://www.w3.org/2000/svg" xmlns:xlink="http://www.w3.org/1999/xlink">
    <!-- Generator: Sketch 3.8.3 (29802) - http://www.bohemiancoding.com/sketch -->
    <title>email-circle</title>
    <desc>Created with Sketch.</desc>
    <defs></defs>
    <g id="Page-1" stroke="none" stroke-width="1" fill="none" fill-rule="evenodd">
        <g id="email-circle" fill="#000000">
            <g id="Page-1">
                <g id="email-circle">
                    <g id="Group">
                        <path d="M30,10 L10,10 C8.16166667,10 6.66666667,11.495 6.66666667,13.3333333 L6.66666667,26.6666667 C6.66666667,28.505 8.16166667,30 10,30 L30,30 C31.8383333,30 33.3333333,28.505 33.3333333,26.6666667 L33.3333333,13.3333333 C33.3333333,11.495 31.8383333,10 30,10 L30,10 L30,10 Z M32.2000008,27 C31.8666678,27.9183333 30.9183342,29 30.0000009,29 L10,29 C9.08166669,29 8,27.9183333 7.5999999,27 L7.5999999,13 C7.86666648,12.1999998 9.00000002,11 10,11 L30,11 C30.9999994,11 32.2000005,12.1999998 32.2000008,13 L32.2000008,27 L32.0000004,27 L32.2000008,27 Z" id="Shape"></path>
                        <path d="M20.0000004,21.3447874 L11.0438232,13.9257202 C10.8333333,13.7568359 10.48,13.2833333 10.1883333,13.64 C9.89666667,13.995 10.2966309,14.2125855 10.4817505,14.3970337 L16.6152133,19.6234682 L10.6899996,23.46 C10.0033333,23.7033333 9.7566667,24.6100002 10,25.0000002 C10.1566667,25.2533336 17.3999996,20.2000008 17.3999996,20.2000008 L20.0000001,22.5 C20.0000001,22.5 22.6000004,20.2000008 22.6000004,20.2000008 L30.0000001,25.0000002 C30.0000001,24.0000002 30.0000001,24.0000002 29.6083333,23.46 L23.2000008,19.745 L29.1000004,14.8100004 C29.9999994,14 30.1033333,13.995 29.8116667,13.64 C29.52,13.2833333 28.90171,13.8292017 28.5450433,14.1192017 L20.0000004,21.3447874 Z" id="Shape"></path>
                        <path d="M20,0 C8.97166667,0 0,8.97166667 0,20 C0,31.0283333 8.97166667,40 20,40 C31.0283333,40 40,31.0283333 40,20 C40,8.97166667 31.0283333,0 20,0 L20,0 L20,0 Z M20,39 C9.52409091,39 1,30.4776364 1,20 C1,9.52409091 9.52409091,1 20,1 C30.4759091,1 39,9.52409091 39,20 C39,30.4776364 30.4759091,39 20,39 L20,39 L20,39 Z" id="Shape"></path>
                    </g>
                </g>
            </g>
        </g>
    </g>
</svg>