<?xml version="1.0" encoding="UTF-8" standalone="no"?>
<svg width="40px" height="40px" viewBox="0 0 40 40" version="1.1" xmlns="http://www.w3.org/2000/svg" xmlns:xlink="http://www.w3.org/1999/xlink">
    <!-- Generator: Sketch 3.8.3 (29802) - http://www.bohemiancoding.com/sketch -->
    <title>instagram</title>
    <desc>Created with Sketch.</desc>
    <defs></defs>
    <g id="Page-1" stroke="none" stroke-width="1" fill="none" fill-rule="evenodd">
        <g id="instagram">
            <g id="Group">
                <path d="M29.475,0.225 C28.975,0.2 10.1387096,0.378683971 9.2,0.45 C2.79272266,0.936776281 0.450000002,5.00969668 0.225,10.55 C0.175,11.025 0.450000001,29.7163345 0.45,30.925 C0.732876375,35.1219208 3.58801885,39.5499985 10.55,39.775 C11.0254095,39.7903646 29.95,39.725 30.925,39.55 C37.660295,39.0514519 39.475,34.65 39.775,29.35 C39.8,28.9 39.725,10.05 39.55,9.075 C39.0251746,2.68518301 34.725,0.575 29.475,0.225 Z M30.3032804,38.7189053 C23.4770197,38.8635294 16.6218341,38.8924543 9.79557341,38.7189053 C4.67587788,38.5742811 1.43629653,35.2768501 1.3205972,30.1282297 C1.17597303,23.3308938 1.17597303,16.5624828 1.3205972,9.76514693 C1.43629653,4.6454514 4.70480271,1.34802038 9.82449824,1.23232105 C16.6507589,1.05877205 23.5059445,1.05877205 30.3322052,1.23232105 C35.5097504,1.37694522 38.6047076,4.7322259 38.8361062,9.93869593 C38.8939559,11.2981631 39.0096552,12.6287054 39.0096552,13.9881726 C39.0385801,16.012911 39.0096552,18.0376493 39.0096552,20.0623877 L39.2121291,20.0623877 C39.2120774,20.0635157 39.0097051,20.0612591 39.0096534,20.0623871 C38.8362765,23.8504467 39.0673585,27.6996631 38.5757827,31.458772 C37.9394364,36.0578206 34.9601785,38.6321308 30.3032804,38.7189053 Z" id="Shape" fill="#000000"></path>
                <path d="M11.2500969,20.2498982 C11.2500969,15.2451437 15.2451201,11.2501204 20.2279239,11.2501204 C25.254629,11.2281697 29.2935537,15.2890451 29.2496523,20.3157502 C29.2277016,25.2985539 25.188777,29.2716266 20.2059732,29.2496759 C15.2231695,29.2277252 11.2281462,25.2327019 11.2500969,20.2498982 Z M12.2500068,20.1805757 C12.2500068,24.5312045 15.7719444,28.0827382 20.0929771,28.1123343 C24.443606,28.1123343 27.9951397,24.5903967 28.0247358,20.269364 C28.0543319,15.9187352 24.5323943,12.3672015 20.1817655,12.3376053 C15.8311367,12.3376053 12.2796029,15.859543 12.2500068,20.1805757 Z" id="Shape" fill="#000000"></path>
                <path d="M30.5365629,11.6995821 C29.3350951,11.6995821 28.2749764,10.6394654 28.2749764,9.46155807 C28.2514182,8.21297624 29.3115369,7.17641775 30.6072375,7.1999759 C31.8558217,7.22353405 32.7745912,8.1894181 32.7745912,9.46155807 C32.751033,10.6865817 31.7380307,11.6995821 30.5365629,11.6995821 Z" id="Shape" fill="#000000"></path>
                <path d="M30.5079811,11 C29.7070026,11 29.0002568,10.2932556 29.0002568,9.50798398 C28.9845513,8.6755961 29.6912971,7.98455711 30.5550975,8.00026254 C31.387487,8.01596797 32,8.65989067 32,9.50798398 C31.9842945,10.3246664 31.3089597,11 30.5079811,11 Z" id="Shape-Copy" fill="#FFFFFF"></path>
            </g>
        </g>
    </g>
</svg>