<?xml version="1.0" encoding="UTF-8" standalone="no"?>
<svg width="30px" height="26px" viewBox="0 0 30 26" version="1.1" xmlns="http://www.w3.org/2000/svg" xmlns:xlink="http://www.w3.org/1999/xlink">
    <!-- Generator: Sketch 3.8.3 (29802) - http://www.bohemiancoding.com/sketch -->
    <title>logo-twitter-bird</title>
    <desc>Created with Sketch.</desc>
    <defs></defs>
    <g id="Page-1" stroke="none" stroke-width="1" fill="none" fill-rule="evenodd">
        <g id="logo-twitter-bird" fill="#000000">
            <g id="Page-1">
                <g id="logo-twitter-bird">
                    <g id="Page-1">
                        <g id="logo-circle-twitter-bird">
                            <g id="Page-1">
                                <g id="logo-circle-twitter-bird">
                                    <g id="Group">
                                        <path d="M20.2705719,2.66453526e-15 C16.5798278,2.66453526e-15 13.5789623,3.13506304 13.5789623,6.98862441 L13.5789623,7.08903569 C9.8604522,6.5624344 6.43241739,4.56313449 4.03386099,1.48608681 C3.8117328,1.20493525 3.46786143,1.0509713 3.12399007,1.07997904 C2.77371104,1.10898679 2.52740654,1.34979429 2.28246621,1.6311254 C1.71566789,2.28213262 1.29634623,3.54961271 1.41958392,5.44776783 C1.94031039,8.14051545 3.70277613,9.36526054 3.88298427,9.33625303 C3.80609379,9.3652608 1.92791553,8.3319042 1.85743257,8.37653138 C1.53278382,8.57735391 1.53468501,10.7756635 1.85743269,11.4470078 C2.79986559,13.4073533 3.65161423,14.3623311 6.66172151,14.7973288 C3.65161423,14.7973288 3.18454197,14.1973768 3.2518509,14.6648001 C3.82851466,18.6694162 8.48831858,18.8322116 9.91598443,19.4556016 C8.24361608,20.2499665 6.66172139,21.0252485 1.27382865,20.7133283 C0.721161891,20.7133283 0.171844484,20.425827 0.066375732,20.5326691 C-0.0390930192,20.6395111 0.641276332,22.4196599 1.27382862,23.0102963 C3.56033129,25.1452846 6.6502738,25.5 9.91598434,25.5 C20.5952205,25.5 26.9771322,16.4362094 26.9771322,7.67365245 C26.9771322,7.5821667 26.9792691,7.1805216 26.9771333,7.08903582 C27.6691479,6.33929834 29.4750735,4.62858603 29.9791335,3.5508384 C30.2375709,2.99299797 28.0054654,3.93016983 28.2468162,3.5508384 C28.4753519,3.18935782 28.6218352,3.05644584 28.8350868,2.63456909 C29.0483383,2.21269221 29.8669331,0.560233571 29.4525787,0.604860758 C29.3479222,0.616017655 26.3802045,1.82474144 24.9577303,2.06572849 C23.5965501,0.604860753 21.9151742,2.66453526e-15 20.2705719,2.66453526e-15 L20.2705719,2.66453526e-15 L20.2705719,2.66453526e-15 Z M26.0487697,10.5827737 C24.9588189,15.3988394 23.4923298,18.6642602 19.7227103,21.46086 C15.7282419,24.4242705 12.9639628,24.7301066 8.86319271,24.7301066 C8.49066892,24.7301066 8.1309468,24.7188657 7.78392202,24.6977855 C2.99628885,24.4069592 1.16413665,21.8162574 0.935017166,21.46086 C5.14937157,21.8162577 8.6148534,21.1325605 10.0309201,19.9722525 C10.3854706,19.6821755 10.7080047,19.4273751 10.6009911,19.2176349 C10.5508424,18.9619366 10.014713,18.8231432 9.57033686,18.7587339 C5.85550636,18.2202951 4.39272396,16.6715552 4.04458082,15.3463845 C4.39272383,15.3062199 5.96253094,15.6039499 7.58281358,15.1996237 C7.9186722,15.0054691 7.95027188,14.747822 7.83388492,14.548928 C7.74702532,14.4004934 7.04929155,14.3457177 6.33699357,14.1678093 C6.09485206,14.1073303 4.8526641,13.7157193 4.31466435,13.3731332 C3.5726974,12.9006651 3.05799675,12.4087829 2.51762748,10.8691434 C2.54405936,10.8691434 2.10026109,9.64775074 2.38184257,9.64775074 C2.66342403,9.64775074 3.57138566,10.1129649 3.73155626,10.1461299 C4.51155708,10.3076367 5.57567189,10.3534424 5.65906156,10.0223013 C5.74245136,9.69116006 4.60924922,9.4269234 4.51537485,9.34592649 C2.86626495,7.92303675 2.00504205,6.75617691 2.00504205,5.06035872 C2.00504205,3.13654359 2.55721479,1.74218883 3.25538786,1.85558087 C5.18388582,3.63913245 6.38066102,4.76568517 8.27099602,5.90119299 C8.55014302,6.06887404 10.3486722,7.11052699 11.8401165,7.4802856 C13.3315605,7.8500442 14.8328115,8.29767982 14.578697,7.8889827 C14.435919,7.55323808 14.3499296,6.70900205 14.3499296,6.33636459 C14.3499296,3.95790519 16.5473295,0.717798441 20.1494391,0.717798441 C22.870239,0.717798441 23.7464763,1.84868427 24.6179019,2.81932655 C25.9285809,2.63517269 26.1238687,2.4736515 28.152253,1.85558086 C27.6621025,3.35174601 26.4049004,4.24277823 26.3184565,4.53772214 C26.2670327,4.71317798 26.8210982,4.32854888 28.4096314,4.32854888 C28.2153477,4.93342303 26.2992339,6.48345371 26.3184565,6.86055387 C26.3291356,7.09261542 26.1008806,10.3525154 26.0487697,10.5827737 L26.0487697,10.5827737 L26.0487697,10.5827737 Z" id="Shape"></path>
                                    </g>
                                </g>
                            </g>
                        </g>
                    </g>
                </g>
            </g>
        </g>
    </g>
</svg>