<?xml version="1.0" encoding="UTF-8" standalone="no"?>
<svg width="40px" height="40px" viewBox="0 0 40 40" version="1.1" xmlns="http://www.w3.org/2000/svg" xmlns:xlink="http://www.w3.org/1999/xlink">
    <!-- Generator: Sketch 3.8.3 (29802) - http://www.bohemiancoding.com/sketch -->
    <title>logo-circle-twitter-bird</title>
    <desc>Created with Sketch.</desc>
    <defs></defs>
    <g id="Page-1" stroke="none" stroke-width="1" fill="none" fill-rule="evenodd">
        <g id="logo-circle-twitter-bird" fill="#000000">
            <g id="Group">
                <path d="M27.8566667,11.8016667 C26.9066667,10.955 25.665,10.4783333 24.3816667,10.4783333 C21.5016667,10.4783333 19.16,12.82 19.16,15.6983333 L19.16,15.7733333 C16.2583333,15.38 13.5833333,13.8866667 11.7116667,11.5883333 C11.5383333,11.3783333 11.27,11.2633333 11.0016667,11.285 C10.7283333,11.3066667 10.5361344,11.4865326 10.345,11.6966667 C9.90271001,12.1829223 9.57550054,13.1296388 9.67166667,14.5474242 C10.0780054,16.5587131 11.4533111,17.4735096 11.593933,17.4518431 C11.533933,17.4735098 10.0683333,16.7016667 10.0133333,16.735 C9.76,16.885 9.76148355,18.5269792 10.0133334,19.0284251 C10.7487425,20.4926623 11.4133879,21.205962 13.7622663,21.5308741 C11.4133879,21.5308741 11.0489172,21.0827531 11.1014404,21.4318846 C11.5514287,24.423045 15.1876156,24.5446414 16.3016668,25.010269 C14.9966668,25.6036024 11.1533333,26.0633333 9.67166667,25.8933333 C9.26666667,25.8383333 8.90545868,25.7532204 8.65147822,26.0766161 C8.39749777,26.4000119 8.73903235,26.9997738 9.12666667,27.42 C10.7731097,29.2048741 13.7533333,29.525 16.3016667,29.525 C24.635,29.525 29.615,22.755 29.615,16.21 C29.615,16.1416667 29.6166676,15.8416667 29.6150009,15.7733334 C30.1550009,15.2133334 31.5642197,13.9355543 31.9575531,13.1305543 C32.1592197,12.7138876 30.4174398,13.4138876 30.6057731,13.1305543 C30.7841065,12.8605543 30.8984119,12.7612786 31.0648186,12.446167 C31.2312252,12.1310553 31.8699997,10.8967875 31.5466663,10.9301208 C31.4649997,10.9384542 28.9666667,11.6216667 27.8566667,11.8016667 Z M29.1010153,15.6026738 C29.1093486,15.7760071 28.9092324,18.0530135 28.8685686,18.2249999 C28.0180468,21.8222547 26.3485183,24.4838405 23.7989342,26.3240924 C21.8041963,27.7638645 19.288289,28.7878165 16.0883332,28.7878165 C15.7976415,28.7878165 15.5169394,28.7794204 15.2461454,28.763675 C11.5102094,28.5464486 9.66012758,26.9304119 9.48133868,26.6649556 C12.7409639,26.9496532 15.4816667,26.4233333 16.5866667,25.5566667 C16.8633333,25.34 16.9733333,24.9716667 16.8633333,24.6366667 C16.7516667,24.3016667 16.4348565,24.0190437 16.0883333,24.0683333 C13.6282336,24.4182589 11.9916984,22.9307864 11.7200317,21.9409792 C11.9916983,21.9109792 13.2166666,22.133362 14.4810225,21.8313594 C14.7431032,21.6863399 14.7677614,21.493896 14.6769411,21.3453365 C14.6091619,21.2344665 14.064699,21.193553 13.5088712,21.0606682 C13.3199208,21.0154948 12.3506037,20.7229895 11.9307861,20.4671023 C11.3518067,20.1142027 10.9501701,19.746802 10.5285035,18.596802 C10.5491291,18.596802 10.2028198,17.6845095 10.4225464,17.6845095 C10.642273,17.6845095 11.3507831,18.0319911 11.4757691,18.0567629 C12.0844275,18.1773969 12.9147887,18.2116104 12.9798602,17.9642718 C13.0449318,17.7169331 12.331594,17.5308137 12.2661132,17.4645388 C10.71503,15.8946445 10.6882749,15.6026738 10.5285035,14.342881 C10.5015943,14.1307033 10.5648314,12.2889166 11.1096371,12.3736123 C12.6145028,13.7057971 13.2018551,14.3618271 14.6769411,15.2099698 C14.894768,15.3352155 16.5096847,16.1200893 17.6735041,16.3962724 C18.8373234,16.6724555 20.2407634,16.9717413 20.1807634,16.7167413 C20.1207634,16.4567413 20.1807634,15.7056436 20.1807634,15.4273102 C20.1807634,13.4673102 21.5951311,11.4405892 24.4059669,11.4405892 C25.3993003,11.4405892 26.873467,12.0961059 27.553467,12.8211059 C27.7501336,13.0311059 28.6645414,12.6344443 30.5319826,11.8643188 C30.1495032,12.9818466 29.1684701,13.6473836 29.1010153,13.8676855 C29.0608878,13.9987384 29.163875,13.8676855 30.4034559,13.8676855 C30.2518503,14.319483 29.0860153,15.3210071 29.1010153,15.6026738 Z" id="Shape"></path>
                <path d="M20,0 C8.97166667,0 0,8.97166667 0,20 C0,31.0283333 8.97166667,40 20,40 C31.0283333,40 40,31.0283333 40,20 C40,8.97166667 31.0283333,0 20,0 L20,0 Z M20,39 C9.52409091,39 1,30.4776364 1,20 C1,9.52409091 9.52409091,1 20,1 C30.4759091,1 39,9.52409091 39,20 C39,30.4776364 30.4759091,39 20,39 L20,39 Z" id="Shape"></path>
            </g>
        </g>
    </g>
</svg>