<?xml version="1.0" encoding="UTF-8" standalone="no"?>
<svg width="40px" height="40px" viewBox="0 0 40 40" version="1.1" xmlns="http://www.w3.org/2000/svg" xmlns:xlink="http://www.w3.org/1999/xlink">
    <!-- Generator: Sketch 3.8.3 (29802) - http://www.bohemiancoding.com/sketch -->
    <title>phone-circle</title>
    <desc>Created with Sketch.</desc>
    <defs></defs>
    <g id="Page-1" stroke="none" stroke-width="1" fill="none" fill-rule="evenodd">
        <g id="phone-circle" fill="#000000">
            <path d="M0,20 C0,31.0283333 8.97166667,40 20,40 C27.3,40 29.965,37.265 30.915,34.9716667 C31.6933333,33.095 31.2712348,31.4316657 30.8262348,30.3616657 L31.57,29.5716667 C32.2266667,28.9133333 32.6133333,28.06 32.66,27.1683333 C32.7083333,26.2416667 32.3883333,25.3866667 31.7583333,24.7583333 L29.1766667,22.1766667 C27.9483333,20.9483333 25.69,21.04 24.365,22.3666667 L23.94,22.79 C21.5166667,20.785 19.21,18.48 17.21,16.06 L17.6333333,15.6366667 C19.0133333,14.2583333 19.0983333,12.0983333 17.825,10.8216667 L15.2416667,8.24 C14.015,7.01166667 11.755,7.105 10.43,8.43333333 L8.855,10.005 C7.22833333,11.6316667 6.86833333,14.1183333 8,15.915 C12.07,22.3683333 17.6333333,27.9316667 24.0866667,32 C24.7733333,32.435 25.5816667,32.6633333 26.4233333,32.6633333 C27.5916667,32.6633333 29.1964974,31.8005029 30.1181641,31.0155029 C30.2681641,31.8088363 31.1792297,32.5324211 30.2823944,34.6246567 C29.2196559,37.1039293 27.0709061,39.3384824 20,39.1989441 C8.40501976,38.9701271 0.831251979,29.9949999 0.831251979,20 C0.831251979,10.0050001 8.66871166,0.7594347 20,0.7594347 C31.3312883,0.7594347 39.0667725,9.89166667 39.0667725,20 C39.0667725,23.7233333 38.7664185,26.2235107 35.9160767,30.7290039 C35.7426989,31.0030596 35.2029468,31.5156958 35.5829468,31.7756958 C35.9629468,32.0356958 36.2416667,31.6833333 36.5,31.305 C38.4204286,28.5096163 39.5813199,25.3086771 39.9060028,21.9528378 C39.9684855,21.307033 40,20.6554916 40,20 C40,8.97166667 31.0283333,0 20,0 C8.97166667,0 0,8.97166667 0,20 Z M8.36655447,14.9489183 C7.74731993,13.7478182 7.89920243,11.9435726 9.02423941,10.9518217 L10.9640774,9.04499983 C11.3490774,8.65833316 12.1485596,7.99291992 12.7495118,7.99291992 C13.3504639,7.99291992 13.7971559,7.9222365 14.5863839,8.61794448 L17.6594992,11.6927762 C18.2844992,12.3177762 18.1206741,13.6195294 17.7653199,14.458333 C17.4099656,15.2971367 16.5598642,15.798699 16.5598642,15.798699 C16.2598642,16.1003657 16.5752317,16.2154334 16.8549682,16.534689 C19.3701364,19.4051829 19.9640533,19.9872113 23.4408714,23.1214162 C23.7545143,23.4041521 24.1879752,23.8240853 24.4879752,23.520752 C24.4879752,23.520752 24.3715249,23.6260987 25.0524904,22.8582765 C25.7334558,22.0904542 26.2812501,22.0036622 26.2812501,22.0036622 C27.8734742,21.8165895 28.2009544,22.1256621 28.8026211,22.7239954 L30.9711305,24.9899293 C31.2611305,25.281596 31.9124709,26.1035271 32.0095797,26.8923702 C32.1066886,27.6812134 31.6137607,28.6536581 31.2504274,29.0203248 L28.9655306,31.1064588 C27.1032678,32.5120545 25.3566651,31.9691342 24.2399985,31.2674675 C15.8921515,25.6606389 10.9640774,19.9872113 8.36655447,14.9489183 Z" id="Shape"></path>
        </g>
    </g>
</svg>