<?xml version="1.0" standalone="no"?>
<!DOCTYPE svg PUBLIC "-//W3C//DTD SVG 1.1//EN" "http://www.w3.org/Graphics/SVG/1.1/DTD/svg11.dtd">
<svg xmlns="http://www.w3.org/2000/svg">
<metadata>Copyright (C) 2016 by original authors @ fontello.com</metadata>
<defs>
<font id="fontello" horiz-adv-x="1000" >
<font-face font-family="fontello" font-weight="400" font-stretch="normal" units-per-em="1000" ascent="850" descent="-150" />
<missing-glyph horiz-adv-x="1000" />
<glyph glyph-name="cancel" unicode="&#xe800;" d="M654 349l346-346-154-154-346 346-346-346-154 154 346 346-346 346 154 154 346-346 346 346 154-154z" horiz-adv-x="1000" />

<glyph glyph-name="angle-left" unicode="&#xe801;" d="M350 546q0-7-6-12l-219-220 219-219q6-6 6-13t-6-13l-28-28q-5-5-12-5t-13 5l-260 260q-6 6-6 13t6 13l260 260q5 6 13 6t12-6l28-28q6-5 6-13z" horiz-adv-x="357.1" />

<glyph glyph-name="angle-right" unicode="&#xe802;" d="M332 314q0-7-6-13l-260-260q-5-5-12-5t-13 5l-28 28q-6 6-6 13t6 13l219 219-219 220q-6 5-6 12t6 13l28 28q5 6 13 6t12-6l260-260q6-5 6-13z" horiz-adv-x="357.1" />

<glyph glyph-name="angle-up" unicode="&#xe803;" d="M600 189q0-7-6-13l-28-27q-5-6-12-6t-13 6l-220 219-219-219q-5-6-13-6t-13 6l-27 27q-6 6-6 13t6 13l260 260q5 6 12 6t13-6l260-260q6-5 6-13z" horiz-adv-x="642.9" />

<glyph glyph-name="angle-down" unicode="&#xe804;" d="M600 439q0-7-6-13l-260-260q-5-5-13-5t-12 5l-260 260q-6 6-6 13t6 13l27 28q6 6 13 6t13-6l219-219 220 219q5 6 13 6t12-6l28-28q6-5 6-13z" horiz-adv-x="642.9" />

<glyph glyph-name="down-circled2" unicode="&#xe805;" d="M625 332q0-7-6-13l-178-178q-6-5-12-5t-13 5l-179 178q-8 9-4 20 5 11 17 11h107v196q0 8 5 13t13 5h107q8 0 13-5t5-13v-196h107q8 0 13-5t5-13z m-196 322q-83 0-153-41t-110-111-41-152 41-152 110-111 153-41 152 41 110 111 41 152-41 152-110 111-152 41z m428-304q0-117-57-215t-156-156-215-58-216 58-155 156-58 215 58 215 155 156 216 58 215-58 156-156 57-215z" horiz-adv-x="857.1" />

<glyph glyph-name="cancel-1" unicode="&#xe806;" d="M452 194q18-18 18-43t-18-43q-18-16-43-16t-43 16l-132 152-132-152q-18-16-43-16t-43 16q-16 18-16 43t16 43l138 156-138 158q-16 18-16 43t16 43q18 16 43 16t43-16l132-152 132 152q18 16 43 16t43-16q18-18 18-43t-18-43l-138-158z" horiz-adv-x="470" />

<glyph glyph-name="menu" unicode="&#xe807;" d="M650 400q22 0 36-15t14-35-15-35-35-15l-600 0q-20 0-35 15t-15 35 14 35 36 15l600 0z m-600 100q-20 0-35 15t-15 35 14 35 36 15l600 0q22 0 36-15t14-35-15-35-35-15l-600 0z m600-300q22 0 36-15t14-35-15-35-35-15l-600 0q-20 0-35 15t-15 35 14 35 36 15l600 0z" horiz-adv-x="700" />

<glyph glyph-name="menu-1" unicode="&#xe808;" d="M68 62q0-30 21-51t51-21h793q30 0 51 21t21 51-21 51-51 21h-793q-29 0-51-21t-21-51z m0 288q0-30 21-51t51-21h793q30 0 51 21t21 51-21 51-51 21h-793q-29 0-51-21t-21-51z m0 288q0-30 21-51t51-21h793q30 0 51 21t21 51-21 51-51 21h-793q-29 0-51-21t-21-51z" horiz-adv-x="1073.2" />

<glyph glyph-name="email-circle" unicode="&#xe809;" d="M750 600l-500 0c-46 0-83-37-83-83l0-334c0-46 37-83 83-83l500 0c46 0 83 37 83 83l0 334c0 46-37 83-83 83l0 0 0 0z m55-425c-8-23-32-50-55-50l-500 0c-23 0-50 27-60 50l0 350c7 20 35 50 60 50l500 0c25 0 55-30 55-50l0-350-5 0 5 0z m-305 141l-224 186c-5 4-14 16-21 7-8-9 2-14 7-19l153-131-148-95c-17-7-23-29-17-39 4-6 185 120 185 120l65-57c0 0 65 57 65 57l185-120c0 25 0 25-10 39l-160 92 148 124c22 20 25 20 17 29-7 9-22-5-31-12l-214-181z m0 534c-276 0-500-224-500-500 0-276 224-500 500-500 276 0 500 224 500 500 0 276-224 500-500 500l0 0 0 0z m0-975c-262 0-475 213-475 475 0 262 213 475 475 475 262 0 475-213 475-475 0-262-213-475-475-475l0 0 0 0z" horiz-adv-x="1000" />

<glyph glyph-name="circle-facebook" unicode="&#xe80a;" d="M500 850c-276 0-500-224-500-500 0-276 224-500 500-500 276 0 500 224 500 500 0 276-224 500-500 500l0 0z m-472-498c0 259 211 471 470 471 260 0 471-212 471-471 0-260-211-471-471-471-259 0-470 211-470 471z m632 123l-77 0 0 22c0 3 1 5 4 6l59 0c11 0 21 9 21 21l0 96c0 11-10 21-21 21l-98 0c-83 0-131-50-131-138l0-28-63 0c-11 0-21-9-21-21l0-83c0-12 10-21 21-21l63 0 0-271c0-11 9-21 21-21l125 0c11 0 20 10 20 21l0 271 67 0c10 0 19 8 21 18l10 84c0 6-1 12-5 16-4 4-10 7-16 7l0 0z m-86-100c-14 0-16-23-16-37l0-253-115 0c0 0 3 175 0 259 0 2 0 8 0 8-18 23-18 23-43 23l-45 0 0 75 48 0c22 0 22 0 35 25l2 41c12 102 91 102 117 102l90-1 1-87-45 0c-29-5-29-5-40-21l0-46c0-13-3-20 25-20l67 0-10-68-71 0z" horiz-adv-x="1000" />

<glyph glyph-name="circle-twitter-bird" unicode="&#xe80b;" d="M696 555c-23 21-54 33-86 33-72 0-131-58-131-130l0-2c-72 10-139 47-186 104-4 6-11 8-18 8-7-1-12-5-16-10-11-13-20-36-17-72 10-50 44-73 48-72-2-1-38 19-40 18-6-4-6-45 0-58 19-36 35-54 94-62-59 0-68 11-66 2 11-75 102-78 130-89-33-15-129-27-166-22-10 1-19 3-26-5-6-8 3-23 12-33 41-45 116-53 180-53 208 0 332 169 332 333 0 2 0 9 0 11 14 14 49 46 59 66 5 10-39-7-34 0 5 7 8 9 12 17 4 8 20 39 12 38-2 0-65-17-93-22z m32-95c0-4-5-61-6-66-21-90-63-156-127-202-50-36-113-62-193-62-7 0-14 1-21 1-93 5-139 46-144 52 82-7 150 6 178 28 7 6 9 15 7 23-3 9-11 16-20 14-61-8-102 29-109 54 7 0 37-5 69 2 7 4 7 9 5 12-2 3-15 4-29 8-5 1-29 8-40 14-14 9-24 18-35 47 1 0-8 23-2 23 5 0 23-9 26-9 15-3 36-4 38 2 1 6-17 11-18 12-39 40-40 47-44 78 0 6 1 52 15 50 37-34 52-50 89-71 5-3 46-23 75-30 29-7 64-14 63-8-2 7 0 25 0 32 0 49 35 100 105 100 25 0 62-16 79-34 5-6 28 4 74 23-9-27-34-44-35-50-1-3 1 0 32 0-4-11-33-36-32-43z m-228 390c-276 0-500-224-500-500 0-276 224-500 500-500 276 0 500 224 500 500 0 276-224 500-500 500l0 0z m0-975c-262 0-475 213-475 475 0 262 213 475 475 475 262 0 475-213 475-475 0-262-213-475-475-475l0 0z" horiz-adv-x="1000" />

<glyph glyph-name="facebook" unicode="&#xe80c;" d="M536 538l-178 0 0 80c0 37 25 46 42 46l125 0 0 164-181 1c-164 0-195-123-195-201l0-90-125 0 0-167 125 0 0-500 209 0 0 500 161 0 17 167 0 0z" horiz-adv-x="552" />

<glyph glyph-name="instagram" unicode="&#xe80d;" d="M484 763c129 0 144-1 195-3 48-2 73-10 90-17 23-9 39-19 56-36 17-17 27-33 36-56 7-17 15-42 17-89 2-51 2-67 2-196 0-129 0-144-2-195-2-47-10-73-17-90-9-23-19-39-36-56-17-17-33-27-56-36-17-7-42-15-90-17-51-2-66-2-195-2-129 0-145 0-196 2-47 2-72 10-89 17-23 9-39 19-56 36-17 17-27 33-36 56-7 17-15 43-17 90-2 51-3 66-3 195 0 129 1 145 3 196 2 47 10 72 17 89 9 23 19 39 36 56 17 17 33 27 56 36 17 7 42 15 89 17 51 2 67 3 196 3m0 87c-131 0-148-1-200-3-51-2-86-11-117-22-32-13-59-29-86-56-27-27-43-54-55-86-12-31-21-66-23-117-2-52-3-68-3-200 0-131 1-148 3-199 2-52 11-87 23-118 12-31 28-59 55-85 27-27 54-44 86-56 31-12 66-20 117-23 52-2 69-3 200-3 131 0 148 1 199 3 52 3 87 11 118 23 32 12 59 29 85 56 27 26 44 54 56 85 12 31 20 66 23 118 2 51 3 68 3 199 0 132-1 148-3 200-3 51-11 86-23 117-12 32-29 59-56 86-26 27-53 43-85 56-31 11-66 20-118 22-51 2-68 3-199 3m0-235c-137 0-248-112-248-249 0-137 111-248 248-248 137 0 248 111 248 248 0 137-111 249-248 249l0 0z m0-410c-89 0-161 72-161 161 0 89 72 161 161 161 89 0 161-72 161-161 0-89-72-161-161-161l0 0z m316 419c0-32-26-58-58-58-32 0-58 26-58 58 0 32 26 58 58 58 32 0 58-26 58-58" horiz-adv-x="1000" />

<glyph glyph-name="look" unicode="&#xe80e;" d="M167 600c0 115 93 208 208 208 115 0 208-93 208-208l0-125-416 0 0 125z m166-375c0 23 19 42 42 42 23 0 42-19 42-42 0-15-9-29-21-36l0-110c0-11-9-21-21-21-11 0-21 10-21 21l0 110c-12 7-21 21-21 36l0 0z m-333-375l750 0 0 625-125 0 0 125c0 138-112 250-250 250-138 0-250-112-250-250l0-125-125 0 0-625z" horiz-adv-x="767" />

<glyph glyph-name="phone" unicode="&#xe80f;" d="M957 126l-107 106c-21 21-49 33-79 33-30 0-58-12-79-33l-28-28c-112 92-219 200-312 311l29 29c43 43 43 114 0 157l-107 107c-21 21-49 33-78 33-30 0-58-12-79-33l-59-59c-54-54-62-139-20-203 171-259 398-486 657-657 26-17 57-27 89-27 43 0 84 17 114 48l59 58c21 21 32 49 32 79 0 30-11 58-32 79" horiz-adv-x="1000" />

<glyph glyph-name="twitter-fill" unicode="&#xe810;" d="M811 523c-22-10-41-10-61 0 26 15 27 26 36 55-24-14-50-25-79-30-22 24-55 39-91 39-68 0-124-56-124-124 0-10 1-20 3-29-103 5-195 55-257 130-10-18-16-40-16-62 0-44 22-82 55-104-20 1-40 6-56 16-1-1-1-1-1-2 0-60 43-111 100-122-18-5-37-6-56-2 16-50 62-86 117-87-54-42-120-59-185-51 55-36 121-56 191-56 229 0 354 189 354 354 0 5 0 11 0 16 24 18 54 34 70 59l0 0z m168-173c0-265-214-479-479-479-265 0-479 214-479 479 0 265 214 479 479 479 265 0 479-214 479-479l0 0z" horiz-adv-x="1000" />

<glyph glyph-name="twitter" unicode="&#xe811;" d="M1224 699c-44-19-81-20-120-1 50 30 53 52 71 109-47-28-100-49-155-60-45 48-108 78-179 78-135 0-244-110-244-245 0-19 2-38 6-55-203 10-383 107-503 255-21-36-33-78-33-123 0-85 43-160 108-203-40 1-77 12-110 30 0-1 0-2 0-3 0-118 84-217 196-239-36-10-74-12-111-5 31-97 122-167 229-169-105-82-235-116-362-102 108-69 236-109 374-109 450 0 695 372 695 695 0 11 0 21 0 32 47 34 105 66 138 115l0 0z" horiz-adv-x="1233" />

<glyph glyph-name="user" unicode="&#xe812;" d="M500 850c-276 0-500-224-500-500 0-132 51-257 145-352l0 0c94-95 221-148 355-148 135 0 261 53 356 149 93 94 144 219 144 351 0 276-224 500-500 500l0 0z m337-809c-44 26-110 50-180 75-17 6-35 13-53 19l0 77c21 13 58 46 62 123 16 9 27 30 27 57 0 24-9 43-22 54 10 31 28 89 16 138-15 58-93 79-156 79-56 0-124-17-148-61-30 1-46-11-54-22-27-35-9-99 1-134-14-10-22-30-22-54 0-27 10-48 26-57 4-77 41-110 62-123l0-77c-16-6-33-12-49-18-68-24-137-49-184-77-78 85-121 194-121 310 0 253 205 458 458 458 253 0 458-205 458-458 0-116-43-225-121-309l0 0z" horiz-adv-x="1000" />

<glyph glyph-name="hamburger-menu" unicode="&#xe813;" d="M1469 743l-1438 0c-17 0-31 20-31 44 0 24 14 44 31 44l1438 0c17 0 31-20 31-44 0-24-14-44-31-44z m31-399c0-24-14-44-31-44l-1438 0c-17 0-31 20-31 44 0 24 14 44 31 44l1438 0c17 0 31-20 31-44z m-31-476l-1438 0c-17 0-31 20-31 44 0 24 14 44 31 44l1438 0c17 0 31-20 31-44 0-24-14-44-31-44z" horiz-adv-x="1500" />

<glyph glyph-name="close" unicode="&#xe814;" d="M559 350l429 429c16 16 16 42 0 59-16 16-43 16-59 0l-429-429-429 429c-16 16-42 16-59 0-16-17-16-43 0-59l429-429-429-429c-16-16-16-43 0-59 8-8 19-12 30-12 10 0 21 4 29 12l429 429 429-429c8-8 19-12 29-12 11 0 22 4 30 12 16 16 16 43 0 59l-429 429z" horiz-adv-x="1000" />

<glyph glyph-name="instagram-1" unicode="&#xe815;" d="M745 850c-13 1-489-1-512-6-134-25-218-120-227-255-1-12 1-489 6-514 24-129 123-215 255-223 12-1 490 1 515 6 132 26 216 123 223 257 1 12-1 487-5 512-26 130-122 214-255 223z m11-957c-166-3-333-4-499 0-125 4-204 84-207 210-3 165-3 330 0 496 3 124 83 205 207 207 167 5 334 5 500 0 126-3 201-85 207-212 1-33 4-65 4-98 1-50 0-99 0-148l5 0c0 0-5 0-5 0-4-92 2-186-10-278-16-112-88-174-202-177l0 0z m-496 440c0 141 113 254 253 254 141 0 255-114 254-256-1-140-114-252-255-251-140 0-252 113-252 253l0 0z m255 222c-122 0-222-99-223-220 0-122 99-222 220-223 122 0 222 99 223 221 1 122-98 221-220 222l0 0z m271 11c-35 0-66 31-66 66-1 36 30 67 68 66 36-1 63-29 63-66 0-36-30-66-65-66z m1 21c-23 0-44 20-44 43 0 25 21 45 46 44 24 0 42-19 42-44 0-24-20-43-44-43z" horiz-adv-x="1007" />

<glyph glyph-name="instagram-copy" unicode="&#xe816;" d="M745 850c-13 1-489-1-512-6-134-25-218-120-227-255-1-12 1-489 6-514 24-129 123-215 255-223 12-1 490 1 515 6 132 26 216 123 223 257 1 12-1 487-5 512-26 130-122 214-255 223z m11-957c-166-3-333-4-499 0-125 4-204 84-207 210-3 165-3 330 0 496 3 124 83 205 207 207 167 5 334 5 500 0 126-3 201-85 207-212 1-33 4-65 4-98 1-50 0-99 0-148l5 0c0 0-5 0-5 0-4-92 2-186-10-278-16-112-88-174-202-177l0 0z m-496 440c0 141 113 254 253 254 141 0 255-114 254-256-1-140-114-252-255-251-140 0-252 113-252 253l0 0z m255 222c-122 0-222-99-223-220 0-122 99-222 220-223 122 0 222 99 223 221 1 122-98 221-220 222l0 0z m271 11c-35 0-66 31-66 66-1 36 30 67 68 66 36-1 63-29 63-66 0-36-30-66-65-66z m1 21c-23 0-44 20-44 43 0 25 21 45 46 44 24 0 42-19 42-44 0-24-20-43-44-43z" horiz-adv-x="1007" />

<glyph glyph-name="hamburger-menu-1" unicode="&#xe817;" d="M1469 743l-1438 0c-17 0-31 20-31 44 0 24 14 44 31 44l1438 0c17 0 31-20 31-44 0-24-14-44-31-44z m31-399c0-24-14-44-31-44l-1438 0c-17 0-31 20-31 44 0 24 14 44 31 44l1438 0c17 0 31-20 31-44z m-31-476l-1438 0c-17 0-31 20-31 44 0 24 14 44 31 44l1438 0c17 0 31-20 31-44 0-24-14-44-31-44z" horiz-adv-x="1500" />

<glyph glyph-name="world" unicode="&#xe818;" d="M881 674c-20-56-60-145-122-176-4-2-9-3-14-1-44 11-89-6-111-19 9-13 20-35 30-74 9-3 26 2 35 6 8 4 18 3 24-4 51-50-15-118-54-159-7-7-16-16-21-22 2-2 4-4 5-5 10-8 23-19 24-37 0-12-5-24-16-35-22-22-44-34-57-41-6-71-59-111-146-111-40 0-83 104-83 125 0 15 7 29 13 40 4 9 8 17 8 22-1 8-18 30-36 48-4 4-6 9-6 15 0 18-3 30-9 36-11 10-36 8-62 7-11-1-22-1-33-1-66 0-83 68-83 104 0 6 1 163 121 187 54 11 91 8 112-10 8-6 12-13 15-20 22-16 61-7 96 1 11 3 23 5 33 7 4 35 4 69 0 84-25-11-51-11-70 0-21 12-34 33-36 61-6 60 110 107 189 132-41 10-83 16-127 16-276 0-500-224-500-500 0-276 224-500 500-500 276 0 500 224 500 500 0 123-45 236-119 324" horiz-adv-x="1000" />

<glyph glyph-name="logo-circle-email" unicode="&#xe819;" d="M500 850c-276 0-500-224-500-500s224-500 500-500 500 224 500 500-224 500-500 500z m0-958c-253 0-458 205-458 458 0 253 205 458 458 458s458-205 458-458c0-253-205-458-458-458z m271 708h-542c-11 0-21-9-21-21v-70c0-8 5-15 12-19l270-141c3-2 7-3 10-3s7 1 10 3l271 141c6 4 11 11 11 19v70c0 12-10 21-21 21z m-21-79l-250-130-250 130v37h500v-37z m11-88l-261-136-261 136c-7 3-14 3-21-1-6-4-10-10-10-18v-293c0-12 10-21 21-21h542c11 0 21 9 21 21v293c0 8-4 14-10 18-7 4-14 4-21 1z m-11-206l-137 82 137 71v-153z m-363 82l-137-82v153l137-71z m-137-167v37l180 107 60-31c6-3 14-3 20 0l60 31 180-107v-37h-500z" horiz-adv-x="1000" />

<glyph glyph-name="email-circle-1" unicode="&#xe81a;" d="M750 600h-500c-46 0-83-37-83-83v-334c0-46 37-83 83-83h500c46 0 83 37 83 83v334c0 46-37 83-83 83z m42-417c0-23-19-41-42-41h-500c-23 0-42 18-42 41v334c0 23 19 41 42 41h500c23 0 42-18 42-41v-334z m-47 326c-7 9-20 10-29 3l-216-177-216 177c-9 7-22 6-29-3-8-9-6-22 3-29l150-124-148-92c-10-7-13-19-7-29 4-6 11-10 18-10 4 0 7 1 11 3l160 101 45-37c4-3 8-4 13-4s9 1 13 4l45 37 160-101c4-2 7-3 11-3 7 0 14 4 18 10 6 10 3 22-7 29l-148 92 150 124c9 7 11 20 3 29z m-245 341c-276 0-500-224-500-500s224-500 500-500 500 224 500 500-224 500-500 500z m0-958c-253 0-458 205-458 458 0 253 205 458 458 458s458-205 458-458c0-253-205-458-458-458z" horiz-adv-x="1000" />

<glyph glyph-name="arrow-circle-down" unicode="&#xe81b;" d="M500-150c-276 0-500 224-500 500 0 276 224 500 500 500 276 0 500-224 500-500 0-276-224-500-500-500l0 0z m0 958c-253 0-458-205-458-458 0-253 205-459 458-459 253 0 458 206 458 459 0 253-205 458-458 458l0 0z m-23-730l-231 216c-7 7-20 8-29 3-10-5-11-14-4-21l271-253c3-4 10-6 16-6 7 0 13 2 17 6l270 253c7 7 6 16-3 21-10 5-23 4-30-3l-241-225c0 75-4 418-7 528 0 5 0 10 0 15 0 4 0 6 0 6 0 11-6 19-18 17-12-2-18-14-18-24l7-533z" horiz-adv-x="1000" />

<glyph glyph-name="logo-circle-facebook" unicode="&#xe81c;" d="M500 850c-276 0-500-224-500-500s224-500 500-500 500 224 500 500-224 500-500 500z m0-958c-253 0-458 205-458 458 0 253 205 458 458 458s458-205 458-458c0-253-205-458-458-458z m160 583h-77v22c0 3 1 5 4 6h59c11 0 21 9 21 21v96c0 11-10 21-21 21l-98 0c-83 0-131-50-131-138v-28h-63c-11 0-21-9-21-21v-83c0-12 10-21 21-21h63v-271c0-11 9-21 21-21h125c11 0 20 10 20 21v271h67c10 0 19 8 21 18l10 84c0 6-1 12-5 16-4 4-10 7-16 7z m-29-83h-68c-12 0-21-10-21-21v-271h-84v271c0 11-9 21-20 21h-63v41h63c11 0 20 10 20 21v49c0 96 68 96 90 96l77 0v-54h-38c-22 0-45-15-45-48v-43c0-11 9-21 21-21h73l-5-41z" horiz-adv-x="1000" />

<glyph glyph-name="logo-circle-twitter-bird" unicode="&#xe81d;" d="M769 564c-2 0-45-4-73-9-23 21-54 33-86 33-72 0-131-58-131-130 0-1 0-2 0-2-72 10-139 47-186 104-4 6-11 8-18 8-7-1-13-4-16-10-12-20-18-43-18-66 0-21 5-40 14-58-2-1-3-1-5-2-6-4-10-12-10-19 0-38 17-72 43-97-4-5-6-12-3-19 11-35 36-63 68-78-32-15-69-21-106-16-10 1-19-5-22-14-3-9 0-19 8-24 54-35 116-53 180-53 208 0 332 169 332 333 0 2 0 3 0 5 14 14 24 35 34 55 5 10 10 20 14 27 5 7 5 16 1 22s-12 11-20 10z m-62-88c-6-4-9-11-8-18 0-4 0-9 0-13 0-143-109-291-291-291-29 0-58 4-85 12 33 8 64 23 92 45 7 6 9 15 7 23-3 9-11 14-20 14-27 1-51 13-68 34 7 0 14 2 20 4 10 2 16 11 16 20-1 10-8 18-17 20-31 6-55 28-66 57 8-2 15-3 23-3 10-1 18 6 20 14 3 9 0 19-8 24-25 17-39 44-39 74 0 5 0 11 1 16 58-58 136-92 218-96 6 0 13 2 17 7 4 5 6 12 4 18-1 7-2 14-2 21 0 49 40 88 89 88 24 0 47-10 64-28 5-5 13-7 20-6 10 2 25 4 40 6-8-17-18-36-27-42z m-207 374c-276 0-500-224-500-500s224-500 500-500 500 224 500 500-224 500-500 500z m0-958c-253 0-458 205-458 458 0 253 205 458 458 458s458-205 458-458c0-253-205-458-458-458z" horiz-adv-x="1000" />

<glyph glyph-name="quote" unicode="&#xe81e;" d="M1179 850l0-169c-65-18-115-42-149-74-34-31-61-72-81-121-21-49-31-109-31-180 83 0 145-24 185-71 41-48 61-98 61-151 0-64-22-117-67-160-44-43-96-64-154-64-77 0-143 33-198 98-54 66-82 156-82 269 0 101 22 195 65 283 44 87 103 162 177 225 75 62 166 101 274 115l0 0z m-664 0l0-169c-65-18-114-42-148-74-34-31-61-72-81-121-21-49-31-109-31-180 84 0 146-24 186-71 40-48 60-98 60-151 0-64-23-117-67-160-44-43-96-64-155-64-75 0-141 33-196 98-55 66-83 156-83 269 0 101 22 195 65 283 44 87 103 162 177 225 75 62 166 101 273 115l0 0z" horiz-adv-x="1222" />

<glyph glyph-name="logo-facebook" unicode="&#xe81f;" d="M544 553c-4 5-9 7-15 7l-156 0 0 58c0 12 2 25 21 25l124 0c11 0 20 10 20 21l0 163c0 12-9 21-20 21l-180 1c-198 0-214-169-214-221l0-68-103 0c-12 0-21-9-21-21l0-165c0-12 9-21 21-21l103 0 0-476c0-12 10-21 21-21l207 0c11 0 21 9 21 21l0 476 138 0c11 0 20 8 21 19l17 165c1 6-1 12-5 16l0 0z m-167-178c-12-3-29-3-29-32 0-29 0-464 0-464l-203 0 0 480c0 12-15 20-44 20l-79 0 0 159 108 0c15 8 15 25 15 37l0 58c0 72 58 203 207 195l164 0 0-159-96 0c-43 0-68-2-68-51l3-58c7-14 7-14 29-22l145 0-14-162-138-1z" horiz-adv-x="551" />

<glyph glyph-name="logo-instagram" unicode="&#xe820;" d="M737 844c-13 1-484-1-507-5-132-25-215-119-224-253-2-12 1-485 5-509 25-128 122-214 253-221 12-1 485 1 509 5 131 26 214 123 221 255 1 12-1 483-5 507-26 130-121 213-252 221z m6-940c-163-4-326-5-489 0-122 3-200 82-202 205-4 162-4 323 0 485 2 122 80 201 202 204 163 4 327 4 490 0 123-4 197-84 202-208 2-32 5-64 5-97 0-48 0-96 0-144l4 0c0 0-4 0-4 0-5-91 1-183-11-272-15-110-86-171-197-173z m-487 440c0 135 109 244 243 244 137 0 246-110 245-246-1-135-110-243-245-242-135 1-243 109-243 244z m245 201c-110 0-201-90-202-199 0-111 90-201 200-202 111 0 201 89 202 199 0 111-89 201-200 202z m262 13c-30 0-56 26-56 56-1 31 26 57 58 56 31-1 54-25 54-56 0-31-25-56-56-56z m0 17c-20 0-38 18-38 37 0 21 17 38 39 38 21 0 36-16 36-38 0-20-17-37-37-37z" horiz-adv-x="1000" />

<glyph glyph-name="email-fill" unicode="&#xe821;" d="M1375 850l-1250 0c-69 0-125-56-125-125l0-750c0-69 56-125 125-125l1250 0c69 0 125 56 125 125l0 750c0 69-56 125-125 125l0 0z m-922-652l-219-125c-5-3-10-4-15-4-11 0-22 5-27 16-9 14-4 34 11 42l219 125c15 9 34 4 43-11 8-15 3-35-12-43l0 0z m297-4c-6 0-12 1-17 5l-531 344c-15 9-19 28-9 43 9 14 28 18 43 9l514-333 514 333c15 9 34 5 44-9 9-15 5-34-10-43l-531-344c-5-4-11-5-17-5l0 0z m558-109c-5-11-16-16-27-16-5 0-10 1-15 4l-219 125c-15 8-20 28-12 43 9 15 28 20 43 11l219-125c15-8 20-28 11-42l0 0z" horiz-adv-x="1500" />

<glyph glyph-name="badge-star-1" unicode="&#xe822;" d="M984 7l-155 271-27-9 8-84c0-7-2-14-7-19-5-5-12-8-20-7l-83 8-25-81c-3-6-8-12-14-15-7-2-15-2-21 1l-46 25 138-236c3-7 10-11 18-11 0 0 1 0 2 0 8 1 14 7 17 14l50 137 143-25c8-1 16 2 21 9 4 7 5 15 1 22z m-638 65c-6-3-13-3-20-1-7 3-12 9-14 15l-25 81-84-8c-7-1-14 2-19 7-5 5-8 12-7 19l8 84-25 8-157-270c-4-7-4-15 1-22 4-7 12-10 20-9l144 25 49-137c3-8 10-13 18-14 1 0 1 0 2 0 7 0 14 4 18 10l142 238-51-26z m522 403c0 7-2 12-7 16l-55 46 33 64c3 6 3 12 1 18-3 6-7 10-13 12l-69 21 6 72c1 6-1 12-6 17-4 4-10 6-16 6l-72-7-21 69c-2 6-7 10-12 13-6 2-12 2-18-1l-64-33-46 55c-8 9-24 9-32 0l-46-55-64 33c-5 3-12 3-17 1-6-2-10-7-12-13l-22-69-71 7c-6 0-13-2-17-6-4-5-6-11-6-17l7-72-69-21c-6-2-11-6-13-12-3-6-2-12 1-18l33-64-55-46c-5-4-8-9-8-16 0-6 3-12 8-16l55-46-33-63c-3-6-3-12-1-18 2-6 7-10 13-12l69-21-7-72c-1-6 2-12 6-17 4-4 11-6 17-6l71 7 22-69c2-6 6-11 12-13 5-2 12-2 17 1l64 33 46-55c4-5 10-8 16-8s12 3 16 8l46 55 64-33c5-3 12-3 18-1 5 2 10 7 12 13l21 69 72-7c6 0 12 2 16 6 5 5 7 11 6 17l-6 72 69 21c6 2 10 6 13 12 2 6 2 12-1 18l-34 63 56 46c5 4 7 10 7 16z m-174 89l-94-75 38-132c3-9 0-17-7-23-4-2-8-4-13-4-4 0-7 1-11 3l-114 72-114-72c-7-4-16-4-23 1-7 6-10 14-8 23l38 132-93 75c-7 5-10 15-7 23 3 8 11 14 20 14h112l57 113c7 15 30 15 37 0l57-113h112c9 0 16-6 19-14 3-8 1-18-6-23z" horiz-adv-x="1000" />
</font>
</defs>
</svg>
