<?xml version="1.0" encoding="UTF-8" standalone="no"?>
<svg width="137px" height="137px" viewBox="0 0 137 137" version="1.1" xmlns="http://www.w3.org/2000/svg" xmlns:xlink="http://www.w3.org/1999/xlink" xmlns:sketch="http://www.bohemiancoding.com/sketch/ns">
    <!-- Generator: Sketch 3.5.2 (25235) - http://www.bohemiancoding.com/sketch -->
    <title>gender-male</title>
    <desc>Created with Sketch.</desc>
    <defs></defs>
    <g id="Page-1" stroke="none" stroke-width="1" fill="none" fill-rule="evenodd" sketch:type="MSPage">
        <g id="gender-male" sketch:type="MSLayerGroup" fill="#000000">
            <path d="M136.041,2.54591667 C135.624292,1.918 135.087708,1.38141667 134.459792,0.964708333 C133.557875,0.359625 132.37625,0 131.291667,0 L94.1875,0 C91.0365,0 88.4791667,2.55733333 88.4791667,5.70833333 C88.4791667,8.86504167 91.0365,11.4166667 94.1875,11.4166667 L117.51175,11.4166667 L80.9612917,47.967125 C72.4273333,41.1913333 61.667125,37.1041667 49.9479167,37.1041667 C22.4052083,37.1041667 0,59.5150833 0,87.0520833 C0,114.594792 22.4052083,137 49.9479167,137 C77.490625,137 99.8958333,114.594792 99.8958333,87.0520833 C99.8958333,75.3385833 95.814375,64.5726667 89.032875,56.0387083 L125.583333,19.48825 L125.583333,42.8125 C125.583333,45.9692083 128.140667,48.5208333 131.291667,48.5208333 C134.442667,48.5208333 137,45.9692083 137,42.8125 L137,5.70833333 C137,4.54383333 136.594708,3.37933333 136.041,2.54591667 L136.041,2.54591667 Z M49.9479167,125.583333 C28.7015,125.583333 11.4166667,108.2985 11.4166667,87.0520833 C11.4166667,65.8056667 28.7015,48.5208333 49.9479167,48.5208333 C71.1943333,48.5208333 88.4791667,65.8056667 88.4791667,87.0520833 C88.4791667,108.2985 71.1943333,125.583333 49.9479167,125.583333 L49.9479167,125.583333 Z" id="Shape" sketch:type="MSShapeGroup"></path>
        </g>
    </g>
</svg>