<?xml version="1.0" encoding="utf-8"?>
<!-- Generator: Adobe Illustrator 16.0.0, SVG Export Plug-In . SVG Version: 6.00 Build 0)  -->
<!DOCTYPE svg PUBLIC "-//W3C//DTD SVG 1.1//EN" "http://www.w3.org/Graphics/SVG/1.1/DTD/svg11.dtd">
<svg version="1.1" id="Layer_1" xmlns:sketch="http://www.bohemiancoding.com/sketch/ns"
	 xmlns="http://www.w3.org/2000/svg" xmlns:xlink="http://www.w3.org/1999/xlink" x="0px" y="0px" width="137px" height="137px"
	 viewBox="-25.5 0 137 137" enable-background="new -25.5 0 137 137" xml:space="preserve">
<title>gender-female</title>
<desc>Created with Sketch.</desc>
<g id="Page-1" sketch:type="MSPage">
	<g id="gender-female" sketch:type="MSLayerGroup">
		<g id="Filled_Icons" sketch:type="MSShapeGroup">
			<path id="Shape" d="M85.625,42.812C85.625,19.208,66.416,0,42.812,0C19.208,0,0,19.208,0,42.812
				c0,20.67,14.745,37.887,34.25,41.871v18.066H22.833c-4.732,0-8.562,3.83-8.562,8.562s3.83,8.562,8.562,8.562H34.25v8.562
				c0,4.732,3.83,8.562,8.562,8.562s8.562-3.83,8.562-8.562v-8.562h11.416c4.732,0,8.562-3.83,8.562-8.562s-3.83-8.562-8.562-8.562
				H51.375V84.684C70.881,80.699,85.625,63.482,85.625,42.812L85.625,42.812z M11.417,42.812c0-17.308,14.083-31.396,31.396-31.396
				s31.396,14.088,31.396,31.396c0,17.313-14.083,31.396-31.396,31.396S11.417,60.126,11.417,42.812L11.417,42.812z"/>
		</g>
	</g>
</g>
</svg>
