<?xml version="1.0" encoding="UTF-8" standalone="no"?>
<svg width="86px" height="137px" viewBox="0 0 86 137" version="1.1" xmlns="http://www.w3.org/2000/svg" xmlns:xlink="http://www.w3.org/1999/xlink" xmlns:sketch="http://www.bohemiancoding.com/sketch/ns">
    <!-- Generator: Sketch 3.5.2 (25235) - http://www.bohemiancoding.com/sketch -->
    <title>gender-female</title>
    <desc>Created with Sketch.</desc>
    <defs></defs>
    <g id="Page-1" stroke="none" stroke-width="1" fill="none" fill-rule="evenodd" sketch:type="MSPage">
        <g id="gender-female" sketch:type="MSLayerGroup" fill="#000000">
            <g id="Filled_Icons" sketch:type="MSShapeGroup">
                <path d="M85.625,42.8125 C85.625,19.2085417 66.4164583,0 42.8125,0 C19.2085417,0 0,19.2085417 0,42.8125 C0,63.482375 14.744625,80.6987083 34.25,84.683125 L34.25,102.75 L22.8333333,102.75 C18.101125,102.75 14.2708333,106.580292 14.2708333,111.3125 C14.2708333,116.044708 18.101125,119.875 22.8333333,119.875 L34.25,119.875 L34.25,128.4375 C34.25,133.169708 38.0802917,137 42.8125,137 C47.5447083,137 51.375,133.169708 51.375,128.4375 L51.375,119.875 L62.7916667,119.875 C67.523875,119.875 71.3541667,116.044708 71.3541667,111.3125 C71.3541667,106.580292 67.523875,102.75 62.7916667,102.75 L51.375,102.75 L51.375,84.683125 C70.880375,80.6987083 85.625,63.482375 85.625,42.8125 L85.625,42.8125 Z M11.4166667,42.8125 C11.4166667,25.5048333 25.499125,11.4166667 42.8125,11.4166667 C60.125875,11.4166667 74.2083333,25.5048333 74.2083333,42.8125 C74.2083333,60.125875 60.125875,74.2083333 42.8125,74.2083333 C25.499125,74.2083333 11.4166667,60.125875 11.4166667,42.8125 L11.4166667,42.8125 Z" id="Shape"></path>
            </g>
        </g>
    </g>
</svg>