<?xml version="1.0" encoding="UTF-8" standalone="no"?>
<svg width="137px" height="137px" viewBox="0 0 137 137" version="1.1" xmlns="http://www.w3.org/2000/svg" xmlns:xlink="http://www.w3.org/1999/xlink" xmlns:sketch="http://www.bohemiancoding.com/sketch/ns">
    <!-- Generator: Sketch 3.5.2 (25235) - http://www.bohemiancoding.com/sketch -->
    <title>no</title>
    <desc>Created with Sketch.</desc>
    <defs></defs>
    <g id="Page-1" stroke="none" stroke-width="1" fill="none" fill-rule="evenodd" sketch:type="MSPage">
        <g id="no" sketch:type="MSLayerGroup" fill="#000000">
            <g id="Group" sketch:type="MSShapeGroup">
                <path d="M59.5103457,1.79905024 L131.775229,76.8911631 C131.775229,76.8911631 133.403747,78.8625505 134.85204,80.9166088 C135.781997,82.2355309 136.422543,83.6166845 136.422543,84.8064967 C136.422543,85.9963088 135.280658,87.1707992 135.280658,87.1707992 C134.219433,88.0464546 132.785651,88.5355175 131.289775,88.5355175 C131.182524,88.5355175 131.075273,88.5308598 130.968021,88.526202 C129.35925,88.4516782 127.869019,87.8135675 126.864243,86.7748911 L50.6592805,7.59328101 C48.7343996,5.57647882 49.1351812,2.65141699 51.5793848,1.04915382 C54.0235884,-0.55310935 57.5741752,-0.213094201 59.5103457,1.79905024 Z" id="Shape"></path>
                <path d="M126.355806,1.76104807 L54.0909224,76.8531609 C54.0909224,76.8531609 52.4624051,78.8245483 51.0141121,80.8786066 C50.0841552,82.1975287 49.443609,83.5786824 49.443609,84.7684945 C49.443609,85.9583066 50.5854941,87.132797 50.5854941,87.132797 C51.6467188,88.0084524 53.080501,88.4975153 54.5763762,88.4975153 C54.6836276,88.4975153 54.7908791,88.4928576 54.8981305,88.4881998 C56.5069019,88.413676 57.9971323,87.7755654 59.0019088,86.7368889 L135.206871,7.55527883 C137.131752,5.53847664 136.73097,2.61341481 134.286767,1.01115164 C131.842563,-0.591111528 128.291977,-0.251096378 126.355806,1.76104807 Z" id="Shape"></path>
                <path d="M105.931893,77.776877 C101.647966,78.6137865 101.606617,81.8283668 101.606617,83.3659574 C101.606617,106.852499 81.3473862,125.96227 56.4481203,125.96227 C31.5488544,125.96227 11.2896241,106.852499 11.2896241,83.3659574 C11.2896241,59.8794159 31.5488544,40.7696454 56.4481203,40.7696454 C63.4928457,40.7696454 65.2540271,30.1205674 56.4481203,30.1205674 C25.3226268,30.1205674 0,54.0011248 0,83.3659574 C0,112.725466 25.3226268,136.611348 56.4481203,136.611348 C87.5736138,136.611348 112.896241,112.725466 112.896241,83.3659574 C112.896241,81.3064761 110.215821,76.9399675 105.931893,77.776877 Z" id="Shape"></path>
            </g>
        </g>
    </g>
</svg>