<?xml version="1.0" encoding="UTF-8" standalone="no"?>
<svg width="126px" height="137px" viewBox="0 0 126 137" version="1.1" xmlns="http://www.w3.org/2000/svg" xmlns:xlink="http://www.w3.org/1999/xlink" xmlns:sketch="http://www.bohemiancoding.com/sketch/ns">
    <!-- Generator: Sketch 3.5.2 (25235) - http://www.bohemiancoding.com/sketch -->
    <title>gender-male-female</title>
    <desc>Created with Sketch.</desc>
    <defs></defs>
    <g id="Page-1" stroke="none" stroke-width="1" fill="none" fill-rule="evenodd" sketch:type="MSPage">
        <g id="gender-male-female" sketch:type="MSLayerGroup" fill="#000000">
            <g id="Filled_Icons" sketch:type="MSShapeGroup">
                <g id="Group">
                    <path d="M60.3028333,46.5914167 C57.6655833,48.3153333 56.9177917,51.8487917 58.636,54.49175 C61.3531667,58.653125 62.7916667,63.5052083 62.7916667,68.5 C62.7916667,82.662375 51.2665417,94.1875 37.1041667,94.1875 C22.9417917,94.1875 11.4166667,82.662375 11.4166667,68.5 C11.4166667,58.8015417 16.7882083,50.0335417 25.4363333,45.6095833 C28.2448333,44.1767917 29.3579583,40.740375 27.9194583,37.9261667 C26.4809583,35.1176667 23.0388333,34.01025 20.2360417,35.44875 C7.75191667,41.8249583 0,54.49175 0,68.5 C0,86.0074583 12.2044167,100.689292 28.5416667,104.56525 L28.5416667,114.166667 L22.8333333,114.166667 C19.6823333,114.166667 17.125,116.724 17.125,119.875 C17.125,123.031708 19.6823333,125.583333 22.8333333,125.583333 L28.5416667,125.583333 L28.5416667,131.291667 C28.5416667,134.448375 31.099,137 34.25,137 C37.401,137 39.9583333,134.448375 39.9583333,131.291667 L39.9583333,125.583333 L45.6666667,125.583333 C48.8176667,125.583333 51.375,123.031708 51.375,119.875 C51.375,116.724 48.8176667,114.166667 45.6666667,114.166667 L39.9583333,114.166667 L39.9583333,105.461458 C59.0869583,103.994417 74.2083333,87.9996667 74.2083333,68.5 C74.2083333,61.2789583 72.1305,54.2805417 68.2031667,48.2525417 C66.47925,45.6095833 62.9457917,44.8675 60.3028333,46.5914167 L60.3028333,46.5914167 Z" id="Shape"></path>
                    <path d="M124.618625,2.54591667 C124.201917,1.918 123.665333,1.38141667 123.037417,0.964708333 C122.141208,0.365333333 120.959583,0 119.875,0 L99.8958333,0 C96.7448333,0 94.1875,2.55733333 94.1875,5.70833333 C94.1875,8.86504167 96.7448333,11.4166667 99.8958333,11.4166667 L106.095083,11.4166667 L90.3515,27.1659583 C84.2093333,22.6677917 76.6743333,19.9791667 68.5,19.9791667 C48.035625,19.9791667 31.3958333,36.6246667 31.3958333,57.0833333 C31.3958333,64.2986667 33.4679583,71.2970833 37.3952917,77.319375 C39.1135,79.956625 42.6526667,80.710125 45.295625,78.9862083 C47.9385833,77.2622917 48.686375,73.7288333 46.9624583,71.085875 C44.251,66.9245 42.8125,62.0838333 42.8125,57.0833333 C42.8125,42.9209583 54.337625,31.3958333 68.5,31.3958333 C75.5440833,31.3958333 81.926,34.25 86.5782917,38.8623333 C86.601125,38.8851667 86.61825,38.9194167 86.6467917,38.94225 C86.6753333,38.9650833 86.7095833,38.9822083 86.7324167,39.01075 C91.3333333,43.6573333 94.1875,50.0449583 94.1875,57.0833333 C94.1875,67.7465 87.7713333,77.148125 77.8388333,81.018375 C74.8990417,82.16575 73.449125,85.4765833 74.5965,88.416375 C75.4755833,90.6654583 77.6333333,92.0525833 79.9166667,92.0525833 C80.6130833,92.0525833 81.3095,91.927 81.9945,91.6587083 C96.3338333,86.053125 105.604167,72.4844167 105.604167,57.0833333 C105.604167,48.909 102.915542,41.374 98.4230833,35.2375417 L114.166667,19.48825 L114.166667,25.6875 C114.166667,28.8442083 116.724,31.3958333 119.875,31.3958333 C123.026,31.3958333 125.583333,28.8442083 125.583333,25.6875 L125.583333,5.70833333 C125.583333,4.56095833 125.18375,3.39075 124.618625,2.54591667 L124.618625,2.54591667 Z" id="Shape"></path>
                </g>
            </g>
        </g>
    </g>
</svg>