<?xml version="1.0" encoding="UTF-8" standalone="no"?>
<svg width="142px" height="137px" viewBox="0 0 142 137" version="1.1" xmlns="http://www.w3.org/2000/svg" xmlns:xlink="http://www.w3.org/1999/xlink" xmlns:sketch="http://www.bohemiancoding.com/sketch/ns">
    <!-- Generator: Sketch 3.5.2 (25235) - http://www.bohemiancoding.com/sketch -->
    <title>si</title>
    <desc>Created with Sketch.</desc>
    <defs></defs>
    <g id="Page-1" stroke="none" stroke-width="1" fill="none" fill-rule="evenodd" sketch:type="MSPage">
        <g id="si" sketch:type="MSLayerGroup" fill="#000000">
            <g id="Page-1" sketch:type="MSShapeGroup">
                <g id="si">
                    <g id="Group">
                        <path d="M139.446905,1.23989152 C136.8909,-0.716634545 133.177904,-0.301441515 131.15317,2.15559121 L55.582782,93.8506876 L30.7488011,69.9230564 C28.4407226,67.6992142 24.7041146,67.6992142 22.401939,69.9230564 C20.0938604,72.1525861 20.0938604,75.7471339 22.401939,77.9652885 L51.9170102,106.403167 C53.0267769,107.472432 54.5261425,108.069627 56.0904412,108.069627 C56.2025985,108.069627 56.3147558,108.063939 56.4269131,108.058252 C58.1092721,107.967251 59.6676679,107.188053 60.7184044,105.919723 L140.409097,9.23093545 C142.422024,6.76821515 142.00291,3.19641758 139.446905,1.23989152 L139.446905,1.23989152 L139.446905,1.23989152 Z" id="Shape"></path>
                        <path d="M109.506817,62.6827724 C106.330995,63.3823442 104.34168,66.4308848 105.06775,69.4908006 C105.858754,72.8180324 106.260159,76.2305779 106.260159,79.6317482 C106.260159,104.719645 85.0742411,125.132354 59.0360453,125.132354 C32.9978496,125.132354 11.8119315,104.719645 11.8119315,79.6317482 C11.8119315,54.5438515 32.9978496,34.1311421 59.0360453,34.1311421 C66.4030071,34.1311421 73.4630121,35.7236633 80.0212609,38.8632052 C82.93735,40.2680364 86.4850615,39.1134585 87.937203,36.2981085 C89.3893445,33.4884461 88.1969357,30.070213 85.2749436,28.676757 C77.0697538,24.7466421 68.2447476,22.7559906 59.0360453,22.7559906 C26.4868249,22.7559906 0.00590301423,48.2647679 0.00590301423,79.6317482 C0.00590301423,110.993041 26.4868249,136.507506 59.0360453,136.507506 C91.5852658,136.507506 118.066188,110.993041 118.066188,79.6317482 C118.066188,75.3774415 117.564431,71.1117597 116.578628,66.9541418 C115.852557,63.8942261 112.694445,61.9718255 109.506817,62.6827724 L109.506817,62.6827724 L109.506817,62.6827724 Z" id="Shape"></path>
                    </g>
                </g>
            </g>
        </g>
    </g>
</svg>