<?xml version="1.0" encoding="UTF-8" standalone="no"?>
<svg width="24px" height="24px" viewBox="0 0 24 24" version="1.1" xmlns="http://www.w3.org/2000/svg" xmlns:xlink="http://www.w3.org/1999/xlink">
    <!-- Generator: Sketch 3.8.3 (29802) - http://www.bohemiancoding.com/sketch -->
    <title>arrow-circle-down-6</title>
    <desc>Created with Sketch.</desc>
    <defs></defs>
    <g id="Page-1" stroke="none" stroke-width="1" fill="none" fill-rule="evenodd">
        <g id="arrow-circle-down-6" fill="#000000">
            <g id="Group">
                <path d="M12,24.004 C5.383,24.004 0,18.621 0,12.004 C0,5.387 5.383,0.004 12,0.004 C18.617,0.004 24,5.387 24,12.004 C24,18.621 18.617,24.004 12,24.004 L12,24.004 Z M12,1.004 C5.935,1.004 1,5.939 1,12.004 C1,18.069 5.935,23.004 12,23.004 C18.065,23.004 23,18.069 23,12.004 C23,5.939 18.065,1.004 12,1.004 L12,1.004 Z" id="Shape"></path>
                <path d="M11.4539832,18.53916 L5.897,13.3349352 C5.73,13.1783636 5.416,13.1474802 5.196,13.2688591 C4.977,13.3895197 4.935,13.6150403 5.103,13.7730483 L11.603,19.8599475 C11.698,19.9482883 11.845,20 12,20 C12.155,20 12.302,19.9475701 12.397,19.8592292 L18.897,13.77233 C19.065,13.614322 19.023,13.3895197 18.804,13.2688591 C18.585,13.1474802 18.271,13.1783636 18.103,13.3349352 L12.3207892,18.7500901 C12.2998206,16.9462366 12.2029867,8.71645623 12.1513539,6.07596661 C12.1488339,5.94709666 12.146399,5.82257558 12.1440612,5.70302278 C12.1422825,5.6120558 12.1430953,5.55920102 12.1430953,5.55920102 C12.1398514,5.3039292 11.990717,5.12318751 11.7023439,5.16234648 C11.4139708,5.20150546 11.278446,5.49788937 11.2823874,5.72750453 L11.4539832,18.53916 Z" id="Combined-Shape"></path>
            </g>
        </g>
    </g>
</svg>