<?xml version="1.0" encoding="utf-8"?>
<!-- Generator: Adobe Illustrator 16.0.0, SVG Export Plug-In . SVG Version: 6.00 Build 0)  -->
<!DOCTYPE svg PUBLIC "-//W3C//DTD SVG 1.1//EN" "http://www.w3.org/Graphics/SVG/1.1/DTD/svg11.dtd">
<svg version="1.1" id="Outline_Icons" xmlns="http://www.w3.org/2000/svg" xmlns:xlink="http://www.w3.org/1999/xlink" x="0px"
	 y="0px" width="24px" height="24px" viewBox="0 0 24 24" enable-background="new 0 0 24 24" xml:space="preserve">
<g>
	<path d="M18,6H6C4.897,6,4,6.897,4,8v8c0,1.103,0.897,2,2,2h12c1.103,0,2-0.897,2-2V8C20,6.897,19.103,6,18,6z M19,16
		c0,0.551-0.449,1-1,1H6c-0.551,0-1-0.449-1-1V8c0-0.551,0.449-1,1-1h12c0.551,0,1,0.449,1,1V16z"/>
	<path d="M17.887,8.184c-0.175-0.214-0.49-0.245-0.704-0.071L12,12.354L6.816,8.113C6.603,7.939,6.288,7.97,6.113,8.184
		C5.938,8.397,5.97,8.712,6.184,8.887l3.618,2.96l-3.566,2.229c-0.234,0.146-0.305,0.455-0.159,0.689C6.171,14.917,6.334,15,6.5,15
		c0.09,0,0.182-0.024,0.265-0.076l3.853-2.409l1.065,0.872C11.775,13.462,11.888,13.5,12,13.5s0.225-0.038,0.316-0.113l1.065-0.872
		l3.853,2.409C17.317,14.976,17.409,15,17.5,15c0.167,0,0.33-0.083,0.424-0.235c0.146-0.234,0.075-0.542-0.159-0.689l-3.566-2.229
		l3.618-2.96C18.03,8.712,18.062,8.397,17.887,8.184z"/>
	<path d="M12,0C5.383,0,0,5.383,0,12s5.383,12,12,12s12-5.383,12-12S18.617,0,12,0z M12,23C5.935,23,1,18.066,1,12
		C1,5.935,5.935,1,12,1s11,4.935,11,11C23,18.066,18.065,23,12,23z"/>
</g>
</svg>
