<?xml version="1.0" encoding="UTF-8" standalone="no"?>
<svg width="48px" height="48px" viewBox="0 0 48 48" version="1.1" xmlns="http://www.w3.org/2000/svg" xmlns:xlink="http://www.w3.org/1999/xlink">
    <!-- Generator: Sketch 3.8.3 (29802) - http://www.bohemiancoding.com/sketch -->
    <title>FB Copy</title>
    <desc>Created with Sketch.</desc>
    <defs></defs>
    <g id="Diseño" stroke="none" stroke-width="1" fill="none" fill-rule="evenodd" stroke-linejoin="round">
        <g id="FB-Copy" transform="translate(1.000000, 1.000000)" stroke="#000000">
            <g id="Facebook" transform="translate(15.000000, 8.000000)">
                <path d="M15.9595,9.375 L10.6245,9.375 L10.6245,6.99375 C10.6245,5.87375 11.367,5.6125 11.8895,5.6125 L15.6245,5.6125 L15.6245,0.685 L10.21325,0.66875 C5.30575,0.66875 4.3745,4.3425 4.3745,6.69375 L4.3745,9.375 L0.6245,9.375 L0.6245,14.375 L4.3745,14.375 L4.3745,29.375 L10.6245,29.375 L10.6245,14.375 L15.43825,14.375 L15.9595,9.375 L15.9595,9.375 Z" id="Stroke-29"></path>
            </g>
            <path d="M46,23 C46,35.704 35.704,46 23,46 C10.296,46 0,35.704 0,23 C0,10.298 10.296,0 23,0 C35.704,0 46,10.298 46,23 L46,23 Z" id="Stroke-313" stroke-linecap="round"></path>
        </g>
    </g>
</svg>