<?xml version="1.0" encoding="UTF-8" standalone="no"?>
<svg width="12px" height="8px" viewBox="0 0 12 8" version="1.1" xmlns="http://www.w3.org/2000/svg" xmlns:xlink="http://www.w3.org/1999/xlink">
    <!-- Generator: Sketch 3.8.3 (29802) - http://www.bohemiancoding.com/sketch -->
    <title>hamburger-menu</title>
    <desc>Created with Sketch.</desc>
    <defs></defs>
    <g id="Page-1" stroke="none" stroke-width="1" fill="none" fill-rule="evenodd">
        <g id="hamburger-menu" fill="#000000">
            <g id="Page-1">
                <g id="hamburger-menu">
                    <g id="Group">
                        <path d="M11.7499999,0.854999988 L0.25,0.854999988 C0.112000001,0.854999988 0,0.698199991 0,0.504999994 C0,0.311799997 0.112000001,0.155 0.25,0.155 L11.7499999,0.155 C11.888,0.155 12,0.311799997 12,0.504999994 C12,0.698199991 11.888,0.854999988 11.7499999,0.854999988 Z M12,4.0499998 C12,4.2431998 11.888,4.3999998 11.7499999,4.3999998 L0.25,4.3999998 C0.112000001,4.3999998 0,4.2431998 0,4.0499998 C0,3.85679981 0.112000001,3.69999981 0.25,3.69999981 L11.7499999,3.69999981 C11.888,3.69999981 12,3.85679981 12,4.0499998 Z M11.7499999,7.855 L0.25,7.855 C0.112000001,7.855 0,7.6982 0,7.505 C0,7.3118 0.112000001,7.155 0.25,7.155 L11.7499999,7.155 C11.888,7.155 12,7.3118 12,7.505 C12,7.6982 11.888,7.855 11.7499999,7.855 Z" id="Combined-Shape"></path>
                    </g>
                </g>
            </g>
        </g>
    </g>
</svg>