<?xml version="1.0" encoding="UTF-8" standalone="no"?>
<svg width="149px" height="148px" viewBox="0 0 149 148" version="1.1" xmlns="http://www.w3.org/2000/svg" xmlns:xlink="http://www.w3.org/1999/xlink">
    <!-- Generator: Sketch 3.8.3 (29802) - http://www.bohemiancoding.com/sketch -->
    <title>instagram</title>
    <desc>Created with Sketch.</desc>
    <defs></defs>
    <g id="Page-1" stroke="none" stroke-width="1" fill="none" fill-rule="evenodd">
        <g id="instagram" transform="translate(0.000000, -1.000000)">
            <g id="Group">
                <path d="M110.272652,1.01535754 C108.402433,0.922016391 37.8951763,1.20203983 34.4352711,1.85542784 C14.7044605,5.58907363 2.26750409,19.5902454 0.864839836,39.5652504 C0.677817934,41.3387321 1.05186174,111.997979 1.70643839,115.638283 C5.35336546,134.773218 19.9410737,147.560955 39.4848624,148.681049 C41.2615705,148.77439 112.04936,148.494366 115.696287,147.840978 C135.240076,144.013991 147.677032,129.546114 148.799164,109.757791 C148.892675,108.077651 148.612142,37.6984275 147.957565,34.0581228 C144.123616,14.7365058 129.909952,2.32213356 110.272652,1.01535754 Z M111.899022,142.569109 C87.2974767,143.090329 62.5916875,143.194572 37.990142,142.569109 C19.538983,142.04789 7.8636733,130.164093 7.4466979,111.60869 C6.9254788,87.1113884 6.9254788,62.7183306 7.4466979,38.221029 C7.8636733,19.76987 19.6432268,7.8860726 38.0943859,7.4690973 C62.6959313,6.8436342 87.4017205,6.8436342 112.003266,7.4690973 C130.662913,7.9903164 141.817003,20.0826015 142.650954,38.8464921 C142.859442,43.7459524 143.276417,48.5411688 143.276417,53.4406292 C143.380661,60.7376977 143.276417,68.0347663 143.276417,75.3318348 L144.006124,75.3318348 C144.005938,75.3359002 143.276596,75.3277674 143.27641,75.3318329 C142.651568,88.9838341 143.484377,102.856242 141.712759,116.403906 C139.419395,132.978676 128.68228,142.256378 111.899022,142.569109 L111.899022,142.569109 Z" id="Shape" fill="#000000"></path>
                <path d="M38.5006602,77.4999959 C38.5006602,56.6465449 55.1468361,40.0003691 75.9088246,40.0003691 C96.8537382,39.9089065 113.682839,56.8294699 113.499914,77.7743835 C113.408452,98.536372 96.5793507,115.091085 75.8173621,114.999623 C55.0553736,114.90816 38.4091977,98.2619845 38.5006602,77.4999959 L38.5006602,77.4999959 Z M76.1840537,44.6558138 C58.1178864,44.6558138 43.3699949,59.2808063 43.2470958,77.2240745 C43.2470958,95.2902417 57.8720883,110.038133 75.8153564,110.161032 C93.8815236,110.161032 108.629415,95.5360398 108.752314,77.5927717 C108.875213,59.5266045 94.2502209,44.778713 76.1840537,44.6558138 L76.1840537,44.6558138 Z" id="Shape" fill="#000000"></path>
                <path d="M116.300649,43 C111.093628,43 106.499199,38.4055791 106.499199,33.3006671 C106.3971,27.8894603 110.99153,23.3971376 116.606944,23.4992359 C122.018161,23.6013341 126,27.787362 126,33.3006671 C125.897901,38.6097756 121.507669,43 116.300649,43 Z" id="Shape" fill="#000000"></path>
                <path d="M116.534585,40 C113.063677,40 110.001113,36.9374408 110.001113,33.5345973 C109.933056,29.9275831 112.995621,26.9330808 116.738756,27.0011377 C120.345777,27.0691945 123,29.8595262 123,33.5345973 C122.931943,37.0735545 120.005492,40 116.534585,40 Z" id="Shape-Copy" fill="#FFFFFF"></path>
            </g>
        </g>
    </g>
</svg>