<?xml version="1.0" encoding="utf-8"?>
<!-- Generator: Adobe Illustrator 19.1.0, SVG Export Plug-In . SVG Version: 6.00 Build 0)  -->
<svg version="1.1" id="Outline_Icons" xmlns="http://www.w3.org/2000/svg" xmlns:xlink="http://www.w3.org/1999/xlink" x="0px"
	 y="0px" viewBox="-272 301 9 12" style="enable-background:new -272 301 9 12;" xml:space="preserve">
<g>
	<path d="M-267.5,307c-0.6,0-1,0.4-1,1c0,0.4,0.2,0.7,0.5,0.8l0,1.7c0,0.3,0.2,0.5,0.5,0.5s0.5-0.2,0.5-0.5l0-1.7
		c0.3-0.2,0.5-0.5,0.5-0.8C-266.5,307.4-266.9,307-267.5,307z"/>
	<path d="M-263.5,305h-0.5v-0.5c0-1.9-1.6-3.5-3.5-3.5s-3.5,1.6-3.5,3.5v0.5h-0.5c-0.3,0-0.5,0.2-0.5,0.5v7c0,0.3,0.2,0.5,0.5,0.5h8
		c0.3,0,0.5-0.2,0.5-0.5v-7C-263,305.2-263.2,305-263.5,305z M-270,304.5c0-1.4,1.1-2.5,2.5-2.5s2.5,1.1,2.5,2.5v0.5h-5V304.5z
		 M-264,312h-7v-6h7V312z"/>
</g>
</svg>
