<?xml version="1.0" encoding="UTF-8" standalone="no"?>
<svg width="160px" height="160px" viewBox="0 0 160 160" version="1.1" xmlns="http://www.w3.org/2000/svg" xmlns:xlink="http://www.w3.org/1999/xlink">
    <!-- Generator: Sketch 3.8.3 (29802) - http://www.bohemiancoding.com/sketch -->
    <title>instagram</title>
    <desc>Created with Sketch.</desc>
    <defs></defs>
    <g id="Page-1" stroke="none" stroke-width="1" fill="none" fill-rule="evenodd">
        <g id="instagram">
            <g id="Group">
                <path d="M117.9,0.9 C115.9,0.8 40.5,1.1 36.8,1.8 C15.7,5.8 2.4,20.8 0.9,42.2 C0.7,44.1 1.1,119.8 1.8,123.7 C5.7,144.2 21.3,157.9 42.2,159.1 C44.1,159.2 119.8,158.9 123.7,158.2 C144.6,154.1 157.9,138.6 159.1,117.4 C159.2,115.6 158.9,40.2 158.2,36.3 C154.1,15.6 138.9,2.3 117.9,0.9 Z M118.854225,151.421933 C92.8066514,151.973788 66.6487066,152.084159 40.6011328,151.421933 C21.0654525,150.870078 8.70389212,138.287775 8.26240782,118.641724 C7.71055244,92.7045209 7.71055244,66.8776893 8.26240782,40.9404866 C8.70389212,21.4048063 21.1758236,8.82250376 40.7115039,8.38101946 C66.7590777,7.71879301 92.9170225,7.71879301 118.964596,8.38101946 C138.721019,8.93287484 150.530724,21.7359196 151.413692,41.6027131 C151.634434,46.7901536 152.075919,51.8672231 152.075919,57.0546636 C152.18629,64.7806389 152.075919,72.5066141 152.075919,80.2325894 L152.848516,80.2325894 C152.848319,80.2368938 152.076109,80.2282829 152.075912,80.2325873 C151.414342,94.6870252 152.296102,109.374825 150.420353,123.718793 C147.992189,141.267794 136.623968,151.09082 118.854225,151.421933 Z" id="Shape" fill="#000000"></path>
                <path d="M41.0004174,80.9995923 C41.0004174,59.3120032 58.3124403,41.9999803 79.9049084,41.9999803 C101.687618,41.9048593 119.189883,59.5022452 118.999641,81.2849553 C118.90452,102.877423 101.402255,120.094325 79.8097874,119.999204 C58.2173193,119.904083 40.9052964,102.59206 41.0004174,80.9995923 Z M80.1798869,48.8001621 C62.4738515,48.8001621 48.0199451,63.1336193 47.8994959,80.7192055 C47.8994959,98.4252409 62.2329531,112.879147 79.8185392,112.999596 C97.5245746,112.999596 111.978481,98.6661393 112.09893,81.0805531 C112.219379,63.3745178 97.8859223,48.9206114 80.1798869,48.8001621 Z" id="Shape" fill="#000000"></path>
                <path d="M122.146252,46.7983284 C117.34038,46.7983284 113.099906,42.5578618 113.099906,37.8462323 C113.005673,32.851905 117.246148,28.705671 122.42895,28.7999036 C127.423287,28.8941362 131.098365,32.7576724 131.098365,37.8462323 C131.004132,42.746327 126.952123,46.7983284 122.146252,46.7983284 Z" id="Shape" fill="#000000"></path>
                <path d="M122.031925,44 C118.82801,44 116.001027,41.1730223 116.001027,38.0319359 C115.938205,34.7023844 118.765188,31.9382284 122.22039,32.0010502 C125.549948,32.0638719 128,34.6395627 128,38.0319359 C127.937178,41.2986657 125.235839,44 122.031925,44 Z" id="Shape-Copy" fill="#FFFFFF"></path>
            </g>
        </g>
    </g>
</svg>