<?xml version="1.0" encoding="utf-8"?>
<!-- Generator: Adobe Illustrator 16.0.0, SVG Export Plug-In . SVG Version: 6.00 Build 0)  -->
<!DOCTYPE svg PUBLIC "-//W3C//DTD SVG 1.1//EN" "http://www.w3.org/Graphics/SVG/1.1/DTD/svg11.dtd">
<svg version="1.1" id="Outline_Icons" xmlns="http://www.w3.org/2000/svg" xmlns:xlink="http://www.w3.org/1999/xlink" x="0px"
	 y="0px" width="24px" height="24px" viewBox="0 0 24 24" enable-background="new 0 0 24 24" xml:space="preserve">
<g>
	<path d="M12,0C5.383,0,0,5.383,0,12s5.383,12,12,12s12-5.383,12-12S18.617,0,12,0z M12,23C5.935,23,1,18.066,1,12
		C1,5.935,5.935,1,12,1s11,4.935,11,11C23,18.066,18.065,23,12,23z"/>
	<path d="M18.5,6h-13C5.224,6,5,6.224,5,6.5v1.696C5,8.383,5.104,8.553,5.269,8.64l6.5,3.39c0.072,0.038,0.152,0.057,0.231,0.057
		s0.159-0.019,0.231-0.057l6.5-3.39C18.896,8.553,19,8.383,19,8.196V6.5C19,6.224,18.776,6,18.5,6z M18,7.894l-6,3.129L6,7.894V7h12
		V7.894z"/>
	<path d="M18.269,10.012L12,13.283l-6.269-3.271c-0.156-0.081-0.342-0.074-0.49,0.016C5.092,10.119,5,10.281,5,10.456V17.5
		C5,17.776,5.224,18,5.5,18h13c0.276,0,0.5-0.224,0.5-0.5v-7.044c0-0.175-0.092-0.336-0.241-0.427
		C18.61,9.937,18.423,9.931,18.269,10.012z M18,14.948l-3.284-1.954L18,11.281V14.948z M9.284,12.994L6,14.948v-3.667L9.284,12.994z
		 M6,17v-0.888l4.327-2.574l1.441,0.752c0.145,0.075,0.318,0.075,0.463,0l1.442-0.752L18,16.112V17H6z"/>
</g>
</svg>
