<?xml version="1.0" encoding="UTF-8" standalone="no"?>
<svg width="40px" height="40px" viewBox="0 0 40 40" version="1.1" xmlns="http://www.w3.org/2000/svg" xmlns:xlink="http://www.w3.org/1999/xlink">
    <!-- Generator: Sketch 3.8.3 (29802) - http://www.bohemiancoding.com/sketch -->
    <title>logo-circle-facebook</title>
    <desc>Created with Sketch.</desc>
    <defs></defs>
    <g id="Page-1" stroke="none" stroke-width="1" fill="none" fill-rule="evenodd">
        <g id="logo-circle-facebook" fill="#000000">
            <g id="Group">
                <path d="M20,0 C8.97166667,0 0,8.97166667 0,20 C0,31.0283333 8.97166667,40 20,40 C31.0283333,40 40,31.0283333 40,20 C40,8.97166667 31.0283333,0 20,0 L20,0 Z M1.10000002,19.9349991 C1.10000002,9.55006552 9.55006552,1.10000002 19.9349991,1.10000002 C30.3199327,1.10000002 38.7699982,9.55006552 38.7699982,19.9349991 C38.7699982,30.321645 30.3199327,38.7699982 19.9349991,38.7699982 C9.55006552,38.7699982 1.10000002,30.321645 1.10000002,19.9349991 Z" id="Shape"></path>
                <path d="M26.3983333,15 L23.3333333,15 L23.3333333,14.13 C23.3333333,13.985 23.3616667,13.9183333 23.4866667,13.885 L25.8333333,13.885 C26.2933333,13.885 26.6666667,13.5116667 26.6666667,13.0516667 L26.6666667,9.20666667 C26.6666667,8.74666667 26.295,8.37666667 25.835,8.37333333 L21.915,8.36166667 C18.5783333,8.36333333 16.6666667,10.38 16.6666667,13.8933333 L16.6666667,15 L14.1666667,15 C13.7066667,15 13.3333333,15.3733333 13.3333333,15.8333333 L13.3333333,19.1666667 C13.3333333,19.6266667 13.7066667,20 14.1666667,20 L16.6666667,20 L16.6666667,30.8333333 C16.6666667,31.2933333 17.04,31.6666667 17.5,31.6666667 L22.5,31.6666667 C22.96,31.6666667 23.3333333,31.2933333 23.3333333,30.8333333 L23.3333333,20 L25.9916667,20 C26.4133333,20 26.7683333,19.6866667 26.8183333,19.2683333 L27.225,15.935 C27.255,15.6983333 27.1816667,15.4616667 27.0216667,15.2816667 C26.8633333,15.1033333 26.6366667,15 26.3983333,15 L26.3983333,15 Z M22.9546719,19 C22.4177186,19 22.2999992,19.9400005 22.2999992,20.5 L22.2999992,30.6000004 L17.7000008,30.6000004 C17.7000008,30.6000004 17.8379973,23.6184786 17.7115134,20.2468846 C17.7076758,20.1445899 17.7000008,19.9400005 17.7000008,19.9400005 C17,19 17,19 16,19 L14.1999998,19 L14.1999998,16 L16.1200008,16 C17,16 17,16 17.5,15 L17.6000004,13.3759415 C18.0909652,9.30000019 21.2387562,9.30000019 22.269862,9.30000019 L25.872896,9.31054596 L25.8999996,12.8000002 L24.1063977,12.8000002 C22.9546719,13 22.9546719,13 22.5,13.6255248 L22.5,15.5 C22.5,16 22.4177187,16.3006359 23.5,16.3006359 L26.2000008,16.3006359 L25.7999992,19 L22.9546719,19 Z" id="Shape"></path>
            </g>
        </g>
    </g>
</svg>