<?xml version="1.0" encoding="UTF-8" standalone="no"?>
<svg width="38px" height="69px" viewBox="0 0 38 69" version="1.1" xmlns="http://www.w3.org/2000/svg" xmlns:xlink="http://www.w3.org/1999/xlink">
    <!-- Generator: Sketch 3.8.3 (29802) - http://www.bohemiancoding.com/sketch -->
    <title>logo-facebook</title>
    <desc>Created with Sketch.</desc>
    <defs></defs>
    <g id="Page-1" stroke="none" stroke-width="1" fill="none" fill-rule="evenodd">
        <g id="logo-facebook" fill="#000000">
            <path d="M37.54,20.4714286 C37.2685714,20.1714286 36.8828571,20 36.48,20 L25.7142857,20 L25.7142857,15.9857143 C25.7142857,15.18 25.88,14.2571429 27.1771429,14.2571429 L35.7142857,14.2571429 C36.5028571,14.2571429 37.1428571,13.6171429 37.1428571,12.8285714 L37.1428571,1.56571429 C37.1428571,0.78 36.5057143,0.14 35.7171429,0.137142857 L23.3428571,0.1 C9.63714286,0.1 8.57142857,11.7342857 8.57142857,15.3 L8.57142857,20 L1.42857143,20 C0.64,20 0,20.64 0,21.4285714 L0,32.8571429 C0,33.6457143 0.64,34.2857143 1.42857143,34.2857143 L8.57142857,34.2857143 L8.57142857,67.1428571 C8.57142857,67.9314286 9.21142857,68.5714286 10,68.5714286 L24.2857143,68.5714286 C25.0742857,68.5714286 25.7142857,67.9314286 25.7142857,67.1428571 L25.7142857,34.2857143 L35.2885714,34.2857143 C36.02,34.2857143 36.6342857,33.7342857 36.7085714,33.0057143 L37.9,21.5771429 C37.9428571,21.1742857 37.8114286,20.7742857 37.54,20.4714286 L37.54,20.4714286 Z M26,32.7999992 C25.2114286,33.0000009 24,33.0000009 24,34.999999 C24,36.9999971 23.9999995,67 23.9999995,67 L9.99999993,67 L9.99999993,33.8571434 C9.99999993,33.068572 9,32.5 7,32.5 L1.5,32.5 L1.5,21.5 L9,21.5 C10,21 10,19.7885714 10,19 L10,15 C10,9.99999993 14,0.99999999 24.2857146,1.5 L35.5999985,1.5 L35.5999985,12.5 L29,12.5 C26.0000005,12.4999999 24.2857146,12.6171429 24.2857146,16 L24.5,20 C25,21.0000009 25,21.0000009 26.5,21.5 L36.5,21.5 L35.5,32.7000008 L26,32.7999992 Z" id="Shape"></path>
        </g>
    </g>
</svg>