<?xml version="1.0" encoding="UTF-8" standalone="no"?>
<svg width="48px" height="48px" viewBox="0 0 48 48" version="1.1" xmlns="http://www.w3.org/2000/svg" xmlns:xlink="http://www.w3.org/1999/xlink">
    <!-- Generator: Sketch 3.8.3 (29802) - http://www.bohemiancoding.com/sketch -->
    <title>mail copy</title>
    <desc>Created with Sketch.</desc>
    <defs></defs>
    <g id="Diseño" stroke="none" stroke-width="1" fill="none" fill-rule="evenodd" stroke-linecap="round" stroke-linejoin="round">
        <g id="mail-copy" transform="translate(1.000000, 1.000000)" stroke="#000000">
            <path d="M38,31 C38,32.656 36.656,34 35,34 L11,34 C9.344,34 8,32.656 8,31 L8,15 C8,13.344 9.344,12 11,12 L35,12 C36.656,12 38,13.344 38,15 L38,31 L38,31 Z" id="Stroke-309"></path>
            <polyline id="Stroke-310" points="34 16 23 25 12 16"></polyline>
            <path d="M34,28 L26,23" id="Stroke-311"></path>
            <path d="M12,28 L20,23" id="Stroke-312"></path>
            <path d="M46,23 C46,35.704 35.704,46 23,46 C10.296,46 0,35.704 0,23 C0,10.298 10.296,0 23,0 C35.704,0 46,10.298 46,23 L46,23 Z" id="Stroke-313"></path>
        </g>
    </g>
</svg>