<?xml version="1.0" encoding="utf-8"?>
<!-- Generator: Adobe Illustrator 19.1.0, SVG Export Plug-In . SVG Version: 6.00 Build 0)  -->
<svg version="1.1" id="Layer_1" xmlns="http://www.w3.org/2000/svg" xmlns:xlink="http://www.w3.org/1999/xlink" x="0px" y="0px"
	 viewBox="0 0 40 40" style="enable-background:new 0 0 40 40;" xml:space="preserve">
<path d="M20,0.5C9.2,0.5,0.5,9.2,0.5,20S9.2,39.5,20,39.5c7.1,0,9.6-2.6,10.5-4.8c0.8-1.9,0.5-3.8,0-4.8l0.7-0.7
	c0.6-0.6,0.9-1.4,1-2.2c0-0.8-0.2-1.6-0.8-2.1l-2.6-2.6c-1.1-1.1-3.1-1.1-4.3,0.2l-0.6,0.6c-2.6-2.1-5-4.6-7.1-7.1l0.6-0.6
	c1.2-1.2,1.3-3.2,0.2-4.3l-2.6-2.6c-1.1-1.1-3.1-1.1-4.3,0.2l-1.6,1.6c-1.5,1.5-1.8,3.8-0.8,5.5c4,6.4,9.5,11.8,15.8,15.8
	c0.6,0.4,1.4,0.6,2.1,0.6c1.2,0,2.4-0.5,3.3-1.4l0.1-0.1c0.2,0.7,0.4,2.2-0.2,3.7c-0.8,1.9-3.1,4.1-9.6,4.1
	C9.8,38.5,1.5,30.2,1.5,20S9.8,1.5,20,1.5S38.5,9.8,38.5,20c0,3.8-1.1,7.4-3.2,10.5c-0.2,0.2-0.1,0.5,0.1,0.7
	c0.2,0.2,0.5,0.1,0.7-0.1c2.2-3.3,3.4-7.1,3.4-11C39.5,9.2,30.8,0.5,20,0.5z M24.8,30.8c-6.2-3.9-11.6-9.3-15.5-15.5
	c-0.8-1.3-0.5-3,0.7-4.2l1.6-1.6c0.4-0.4,1-0.7,1.5-0.7c0,0,0.1,0,0.1,0c0.5,0,0.9,0.2,1.3,0.5l2.6,2.6c0.7,0.7,0.7,2-0.2,2.9
	l-0.9,0.9c-0.2,0.2-0.2,0.5,0,0.7c2.3,2.9,5,5.6,7.9,7.9c0.2,0.2,0.5,0.1,0.7,0l0.9-0.9c0.9-0.8,2.2-0.9,2.9-0.2l2.6,2.6
	c0.4,0.4,0.5,0.8,0.5,1.4c0,0.6-0.3,1.1-0.7,1.5L29,30.1C27.8,31.3,26,31.6,24.8,30.8z"/>
</svg>
