<?xml version="1.0" encoding="utf-8"?>
<!-- Generator: Adobe Illustrator 16.0.0, SVG Export Plug-In . SVG Version: 6.00 Build 0)  -->
<!DOCTYPE svg PUBLIC "-//W3C//DTD SVG 1.1//EN" "http://www.w3.org/Graphics/SVG/1.1/DTD/svg11.dtd">
<svg version="1.1" id="Outline_Icons" xmlns="http://www.w3.org/2000/svg" xmlns:xlink="http://www.w3.org/1999/xlink" x="0px"
	 y="0px" width="24px" height="24px" viewBox="0 0 24 24" enable-background="new 0 0 24 24" xml:space="preserve">
<path d="M12,0C5.383,0,0,5.383,0,12s5.383,12,12,12c4.38,0,5.979-1.641,6.549-3.017c0.467-1.126,0.327-2.265,0.06-2.907l0.333-0.333
	c0.394-0.395,0.626-0.907,0.654-1.442c0.029-0.556-0.163-1.069-0.541-1.446l-1.549-1.549c-0.737-0.737-2.092-0.682-2.887,0.114
	l-0.255,0.254c-1.454-1.203-2.838-2.586-4.038-4.038l0.254-0.254c0.828-0.827,0.879-2.123,0.115-2.889l-1.55-1.549
	C8.409,4.207,7.053,4.263,6.258,5.06L5.313,6.003C4.337,6.979,4.121,8.471,4.8,9.549c2.442,3.872,5.78,7.21,9.652,9.651
	c0.412,0.261,0.897,0.398,1.402,0.398c0.701,0,1.392-0.277,1.945-0.748c0.09,0.476,0.106,1.208-0.261,1.939
	C16.813,22.236,14.897,23,12,23C5.935,23,1,18.065,1,12S5.935,1,12,1s11,4.935,11,11c0,2.234-0.665,4.384-1.924,6.217
	c-0.156,0.228-0.099,0.539,0.129,0.695s0.54,0.098,0.695-0.129c1.374-2,2.1-4.346,2.1-6.783C24,5.383,18.617,0,12,0z M14.985,18.354
	c-3.747-2.362-6.977-5.592-9.34-9.339C5.213,8.329,5.371,7.359,6.021,6.71l0.945-0.943c0.231-0.232,0.538-0.365,0.841-0.365
	c0.246,0,0.471,0.089,0.632,0.25L9.988,7.2c0.375,0.375,0.323,1.036-0.115,1.475L9.3,9.248C9.12,9.429,9.104,9.715,9.263,9.914
	c1.401,1.75,3.069,3.417,4.823,4.823c0.198,0.158,0.486,0.145,0.666-0.037l0.575-0.573c0.419-0.419,1.113-0.473,1.474-0.114
	l1.549,1.549c0.174,0.175,0.263,0.418,0.249,0.687c-0.015,0.289-0.145,0.568-0.363,0.788L17.29,17.98
	C16.66,18.612,15.655,18.775,14.985,18.354z"/>
</svg>
