<?xml version="1.0" encoding="UTF-8" standalone="no"?>
<svg width="22px" height="18px" viewBox="0 0 22 18" version="1.1" xmlns="http://www.w3.org/2000/svg" xmlns:xlink="http://www.w3.org/1999/xlink">
    <!-- Generator: Sketch 3.8.3 (29802) - http://www.bohemiancoding.com/sketch -->
    <title>quote</title>
    <desc>Created with Sketch.</desc>
    <defs></defs>
    <g id="Page-1" stroke="none" stroke-width="1" fill="none" fill-rule="evenodd">
        <path d="M21.2158203,0 L21.2158203,3.05175781 C20.0439395,3.36100415 19.1528351,3.80045288 18.5424805,4.37011719 C17.9321259,4.93978149 17.4438495,5.66812708 17.0776367,6.55517578 C16.711424,7.44222449 16.5283203,8.52050146 16.5283203,9.79003906 C18.0257236,9.79003906 19.1365524,10.2172809 19.8608398,11.0717773 C20.5851273,11.9262738 20.9472656,12.8336541 20.9472656,13.7939453 C20.9472656,14.9332739 20.5485066,15.8894818 19.7509766,16.6625977 C18.9534465,17.4357135 18.0257214,17.8222656 16.9677734,17.8222656 C15.584303,17.8222656 14.4002328,17.232265 13.4155273,16.0522461 C12.4308219,14.8722272 11.9384766,13.2568462 11.9384766,11.2060547 C11.9384766,9.39940503 12.3290977,7.70671362 13.1103516,6.12792969 C13.8916055,4.54914575 14.9536066,3.1982478 16.2963867,2.07519531 C17.6391669,0.952142822 19.2789617,0.260417969 21.2158203,0 L21.2158203,0 Z M9.27734375,0 L9.27734375,3.05175781 C8.10546289,3.36100415 7.21435852,3.80045288 6.60400391,4.37011719 C5.99364929,4.93978149 5.50537292,5.66812708 5.13916016,6.55517578 C4.77294739,7.44222449 4.58984375,8.52050146 4.58984375,9.79003906 C6.10352319,9.79003906 7.2184209,10.2172809 7.93457031,11.0717773 C8.65071973,11.9262738 9.00878906,12.8336541 9.00878906,13.7939453 C9.00878906,14.9332739 8.61003003,15.8894818 7.8125,16.6625977 C7.01496997,17.4357135 6.08724487,17.8222656 5.02929688,17.8222656 C3.66210254,17.8222656 2.48210132,17.232265 1.48925781,16.0522461 C0.496414307,14.8722272 0,13.2568462 0,11.2060547 C0,9.39940503 0.390621094,7.70671362 1.171875,6.12792969 C1.95312891,4.54914575 3.01513,3.1982478 4.35791016,2.07519531 C5.70069031,0.952142822 7.34048511,0.260417969 9.27734375,0 L9.27734375,0 Z" id="quote" fill="#000000"></path>
    </g>
</svg>