<?xml version="1.0" encoding="UTF-8" standalone="no"?>
<svg width="48px" height="48px" viewBox="0 0 48 48" version="1.1" xmlns="http://www.w3.org/2000/svg" xmlns:xlink="http://www.w3.org/1999/xlink">
    <!-- Generator: Sketch 3.8.3 (29802) - http://www.bohemiancoding.com/sketch -->
    <title>TW Copy</title>
    <desc>Created with Sketch.</desc>
    <defs></defs>
    <g id="Diseño" stroke="none" stroke-width="1" fill="none" fill-rule="evenodd" stroke-linejoin="round">
        <g id="TW-Copy" transform="translate(1.000000, 1.000000)" stroke="#000000">
            <g id="Twitter" transform="translate(8.000000, 11.000000)">
                <path d="M29.9427701,3.69432133 C28.8717175,4.17195291 27.9690859,4.18774238 27.0111911,3.71537396 C28.2467175,2.97590028 28.3032964,2.45747922 28.749349,1.05879501 C27.5940859,1.74432133 26.3138227,2.24300554 24.9519806,2.51274238 C23.8625069,1.35090028 22.3072438,0.623268698 20.5888227,0.623268698 C17.2861911,0.623268698 14.6098753,3.30221607 14.6098753,6.60221607 C14.6098753,7.07195291 14.6625069,7.52853186 14.7638227,7.96537396 C9.79408587,7.71668975 5.38882271,5.3351108 2.4401385,1.71668975 C1.92566482,2.60090028 1.62961219,3.62853186 1.62961219,4.72458449 C1.62961219,6.79958449 2.68619114,8.62853186 4.2901385,9.70090028 C3.30987535,9.66932133 2.38882271,9.40090028 1.58224377,8.95353186 C1.58092798,8.97853186 1.58092798,9.00221607 1.58092798,9.02853186 C1.58092798,11.9259003 3.64277008,14.3416898 6.3782964,14.8916898 C5.50198061,15.1298476 4.5782964,15.1666898 3.67698061,14.9943213 C4.43882271,17.3693213 6.64671745,19.0982687 9.26250693,19.1469529 C6.70461219,21.1522161 3.53224377,21.9877424 0.411191136,21.6219529 C3.05724377,23.3180055 6.19934903,24.3074792 9.57698061,24.3074792 C20.574349,24.3074792 26.5861911,15.1969529 26.5861911,7.29563712 C26.5861911,7.0351108 26.5822438,6.77984765 26.5704017,6.52195291 C27.7375069,5.67984765 29.1414543,4.89432133 29.9427701,3.69432133 L29.9427701,3.69432133 Z" id="Stroke-39"></path>
            </g>
            <path d="M46,23 C46,35.704 35.704,46 23,46 C10.296,46 0,35.704 0,23 C0,10.298 10.296,0 23,0 C35.704,0 46,10.298 46,23 L46,23 Z" id="Stroke-313-Copy" stroke-linecap="round"></path>
        </g>
    </g>
</svg>